<svg width="1002" height="542" viewBox="0 0 1002 542" fill="none" xmlns="http://www.w3.org/2000/svg">
<mask id="path-1-outside-1_2_813" maskUnits="userSpaceOnUse" x="0" y="0" width="85" height="44" fill="black">
<rect fill="white" width="85" height="44"/>
<path d="M78.207 42.5C81.4064 42.5 84.0416 39.8937 83.5965 36.7255C82.3499 27.8528 78.2537 19.5638 71.8449 13.1551C64.0622 5.37231 53.5065 1 42.5 1C31.4935 0.999999 20.9378 5.37231 13.1551 13.1551C6.74633 19.5638 2.65013 27.8528 1.40355 36.7255C0.958411 39.8937 3.59361 42.5 6.793 42.5C9.99238 42.5 12.5293 39.8825 13.1451 36.7429C14.2808 30.9525 17.1143 25.5809 21.3476 21.3476C26.9576 15.7376 34.5663 12.586 42.5 12.586C50.4337 12.586 58.0424 15.7376 63.6524 21.3476C67.8857 25.581 70.7192 30.9525 71.8549 36.7429C72.4707 39.8825 75.0076 42.5 78.207 42.5Z"/>
</mask>
<path d="M78.207 42.5C81.4064 42.5 84.0416 39.8937 83.5965 36.7255C82.3499 27.8528 78.2537 19.5638 71.8449 13.1551C64.0622 5.37231 53.5065 1 42.5 1C31.4935 0.999999 20.9378 5.37231 13.1551 13.1551C6.74633 19.5638 2.65013 27.8528 1.40355 36.7255C0.958411 39.8937 3.59361 42.5 6.793 42.5C9.99238 42.5 12.5293 39.8825 13.1451 36.7429C14.2808 30.9525 17.1143 25.5809 21.3476 21.3476C26.9576 15.7376 34.5663 12.586 42.5 12.586C50.4337 12.586 58.0424 15.7376 63.6524 21.3476C67.8857 25.581 70.7192 30.9525 71.8549 36.7429C72.4707 39.8825 75.0076 42.5 78.207 42.5Z" stroke="white" stroke-width="2" mask="url(#path-1-outside-1_2_813)"/>
<mask id="path-2-outside-2_2_813" maskUnits="userSpaceOnUse" x="500" y="0" width="85" height="44" fill="black">
<rect fill="white" x="500" width="85" height="44"/>
<path d="M578.207 42.5C581.406 42.5 584.042 39.8937 583.596 36.7255C582.35 27.8528 578.254 19.5638 571.845 13.1551C564.062 5.37231 553.506 1 542.5 1C531.494 0.999999 520.938 5.37231 513.155 13.1551C506.746 19.5638 502.65 27.8528 501.404 36.7255C500.958 39.8937 503.594 42.5 506.793 42.5C509.992 42.5 512.529 39.8825 513.145 36.7429C514.281 30.9525 517.114 25.5809 521.348 21.3476C526.958 15.7376 534.566 12.586 542.5 12.586C550.434 12.586 558.042 15.7376 563.652 21.3476C567.886 25.581 570.719 30.9525 571.855 36.7429C572.471 39.8825 575.008 42.5 578.207 42.5Z"/>
</mask>
<path d="M578.207 42.5C581.406 42.5 584.042 39.8937 583.596 36.7255C582.35 27.8528 578.254 19.5638 571.845 13.1551C564.062 5.37231 553.506 1 542.5 1C531.494 0.999999 520.938 5.37231 513.155 13.1551C506.746 19.5638 502.65 27.8528 501.404 36.7255C500.958 39.8937 503.594 42.5 506.793 42.5C509.992 42.5 512.529 39.8825 513.145 36.7429C514.281 30.9525 517.114 25.5809 521.348 21.3476C526.958 15.7376 534.566 12.586 542.5 12.586C550.434 12.586 558.042 15.7376 563.652 21.3476C567.886 25.581 570.719 30.9525 571.855 36.7429C572.471 39.8825 575.008 42.5 578.207 42.5Z" stroke="white" stroke-width="2" mask="url(#path-2-outside-2_2_813)"/>
<mask id="path-3-outside-3_2_813" maskUnits="userSpaceOnUse" x="0" y="282" width="85" height="44" fill="black">
<rect fill="white" y="282" width="85" height="44"/>
<path d="M78.207 324.5C81.4064 324.5 84.0416 321.894 83.5965 318.725C82.3499 309.853 78.2537 301.564 71.8449 295.155C64.0622 287.372 53.5065 283 42.5 283C31.4935 283 20.9378 287.372 13.1551 295.155C6.74633 301.564 2.65013 309.853 1.40355 318.725C0.958411 321.894 3.59361 324.5 6.793 324.5C9.99238 324.5 12.5293 321.882 13.1451 318.743C14.2808 312.952 17.1143 307.581 21.3476 303.348C26.9576 297.738 34.5663 294.586 42.5 294.586C50.4337 294.586 58.0424 297.738 63.6524 303.348C67.8857 307.581 70.7192 312.952 71.8549 318.743C72.4707 321.882 75.0076 324.5 78.207 324.5Z"/>
</mask>
<path d="M78.207 324.5C81.4064 324.5 84.0416 321.894 83.5965 318.725C82.3499 309.853 78.2537 301.564 71.8449 295.155C64.0622 287.372 53.5065 283 42.5 283C31.4935 283 20.9378 287.372 13.1551 295.155C6.74633 301.564 2.65013 309.853 1.40355 318.725C0.958411 321.894 3.59361 324.5 6.793 324.5C9.99238 324.5 12.5293 321.882 13.1451 318.743C14.2808 312.952 17.1143 307.581 21.3476 303.348C26.9576 297.738 34.5663 294.586 42.5 294.586C50.4337 294.586 58.0424 297.738 63.6524 303.348C67.8857 307.581 70.7192 312.952 71.8549 318.743C72.4707 321.882 75.0076 324.5 78.207 324.5Z" stroke="white" stroke-width="2" mask="url(#path-3-outside-3_2_813)"/>
<mask id="path-4-outside-4_2_813" maskUnits="userSpaceOnUse" x="500" y="282" width="85" height="44" fill="black">
<rect fill="white" x="500" y="282" width="85" height="44"/>
<path d="M578.207 324.5C581.406 324.5 584.042 321.894 583.596 318.725C582.35 309.853 578.254 301.564 571.845 295.155C564.062 287.372 553.506 283 542.5 283C531.494 283 520.938 287.372 513.155 295.155C506.746 301.564 502.65 309.853 501.404 318.725C500.958 321.894 503.594 324.5 506.793 324.5C509.992 324.5 512.529 321.882 513.145 318.743C514.281 312.952 517.114 307.581 521.348 303.348C526.958 297.738 534.566 294.586 542.5 294.586C550.434 294.586 558.042 297.738 563.652 303.348C567.886 307.581 570.719 312.952 571.855 318.743C572.471 321.882 575.008 324.5 578.207 324.5Z"/>
</mask>
<path d="M578.207 324.5C581.406 324.5 584.042 321.894 583.596 318.725C582.35 309.853 578.254 301.564 571.845 295.155C564.062 287.372 553.506 283 542.5 283C531.494 283 520.938 287.372 513.155 295.155C506.746 301.564 502.65 309.853 501.404 318.725C500.958 321.894 503.594 324.5 506.793 324.5C509.992 324.5 512.529 321.882 513.145 318.743C514.281 312.952 517.114 307.581 521.348 303.348C526.958 297.738 534.566 294.586 542.5 294.586C550.434 294.586 558.042 297.738 563.652 303.348C567.886 307.581 570.719 312.952 571.855 318.743C572.471 321.882 575.008 324.5 578.207 324.5Z" stroke="white" stroke-width="2" mask="url(#path-4-outside-4_2_813)"/>
<mask id="path-5-outside-5_2_813" maskUnits="userSpaceOnUse" x="0" y="141" width="85" height="44" fill="black">
<rect fill="white" y="141" width="85" height="44"/>
<path d="M78.207 183.5C81.4064 183.5 84.0416 180.894 83.5965 177.725C82.3499 168.853 78.2537 160.564 71.8449 154.155C64.0622 146.372 53.5065 142 42.5 142C31.4935 142 20.9378 146.372 13.1551 154.155C6.74633 160.564 2.65013 168.853 1.40355 177.725C0.958411 180.894 3.59361 183.5 6.793 183.5C9.99238 183.5 12.5293 180.882 13.1451 177.743C14.2808 171.952 17.1143 166.581 21.3476 162.348C26.9576 156.738 34.5663 153.586 42.5 153.586C50.4337 153.586 58.0424 156.738 63.6524 162.348C67.8857 166.581 70.7192 171.952 71.8549 177.743C72.4707 180.882 75.0076 183.5 78.207 183.5Z"/>
</mask>
<path d="M78.207 183.5C81.4064 183.5 84.0416 180.894 83.5965 177.725C82.3499 168.853 78.2537 160.564 71.8449 154.155C64.0622 146.372 53.5065 142 42.5 142C31.4935 142 20.9378 146.372 13.1551 154.155C6.74633 160.564 2.65013 168.853 1.40355 177.725C0.958411 180.894 3.59361 183.5 6.793 183.5C9.99238 183.5 12.5293 180.882 13.1451 177.743C14.2808 171.952 17.1143 166.581 21.3476 162.348C26.9576 156.738 34.5663 153.586 42.5 153.586C50.4337 153.586 58.0424 156.738 63.6524 162.348C67.8857 166.581 70.7192 171.952 71.8549 177.743C72.4707 180.882 75.0076 183.5 78.207 183.5Z" stroke="white" stroke-width="2" mask="url(#path-5-outside-5_2_813)"/>
<mask id="path-6-outside-6_2_813" maskUnits="userSpaceOnUse" x="500" y="141" width="85" height="44" fill="black">
<rect fill="white" x="500" y="141" width="85" height="44"/>
<path d="M578.207 183.5C581.406 183.5 584.042 180.894 583.596 177.725C582.35 168.853 578.254 160.564 571.845 154.155C564.062 146.372 553.506 142 542.5 142C531.494 142 520.938 146.372 513.155 154.155C506.746 160.564 502.65 168.853 501.404 177.725C500.958 180.894 503.594 183.5 506.793 183.5C509.992 183.5 512.529 180.882 513.145 177.743C514.281 171.952 517.114 166.581 521.348 162.348C526.958 156.738 534.566 153.586 542.5 153.586C550.434 153.586 558.042 156.738 563.652 162.348C567.886 166.581 570.719 171.952 571.855 177.743C572.471 180.882 575.008 183.5 578.207 183.5Z"/>
</mask>
<path d="M578.207 183.5C581.406 183.5 584.042 180.894 583.596 177.725C582.35 168.853 578.254 160.564 571.845 154.155C564.062 146.372 553.506 142 542.5 142C531.494 142 520.938 146.372 513.155 154.155C506.746 160.564 502.65 168.853 501.404 177.725C500.958 180.894 503.594 183.5 506.793 183.5C509.992 183.5 512.529 180.882 513.145 177.743C514.281 171.952 517.114 166.581 521.348 162.348C526.958 156.738 534.566 153.586 542.5 153.586C550.434 153.586 558.042 156.738 563.652 162.348C567.886 166.581 570.719 171.952 571.855 177.743C572.471 180.882 575.008 183.5 578.207 183.5Z" stroke="white" stroke-width="2" mask="url(#path-6-outside-6_2_813)"/>
<mask id="path-7-outside-7_2_813" maskUnits="userSpaceOnUse" x="0" y="423" width="85" height="44" fill="black">
<rect fill="white" y="423" width="85" height="44"/>
<path d="M78.207 465.5C81.4064 465.5 84.0416 462.894 83.5965 459.725C82.3499 450.853 78.2537 442.564 71.8449 436.155C64.0622 428.372 53.5065 424 42.5 424C31.4935 424 20.9378 428.372 13.1551 436.155C6.74633 442.564 2.65013 450.853 1.40355 459.725C0.958411 462.894 3.59361 465.5 6.793 465.5C9.99238 465.5 12.5293 462.882 13.1451 459.743C14.2808 453.952 17.1143 448.581 21.3476 444.348C26.9576 438.738 34.5663 435.586 42.5 435.586C50.4337 435.586 58.0424 438.738 63.6524 444.348C67.8857 448.581 70.7192 453.952 71.8549 459.743C72.4707 462.882 75.0076 465.5 78.207 465.5Z"/>
</mask>
<path d="M78.207 465.5C81.4064 465.5 84.0416 462.894 83.5965 459.725C82.3499 450.853 78.2537 442.564 71.8449 436.155C64.0622 428.372 53.5065 424 42.5 424C31.4935 424 20.9378 428.372 13.1551 436.155C6.74633 442.564 2.65013 450.853 1.40355 459.725C0.958411 462.894 3.59361 465.5 6.793 465.5C9.99238 465.5 12.5293 462.882 13.1451 459.743C14.2808 453.952 17.1143 448.581 21.3476 444.348C26.9576 438.738 34.5663 435.586 42.5 435.586C50.4337 435.586 58.0424 438.738 63.6524 444.348C67.8857 448.581 70.7192 453.952 71.8549 459.743C72.4707 462.882 75.0076 465.5 78.207 465.5Z" stroke="white" stroke-width="2" mask="url(#path-7-outside-7_2_813)"/>
<mask id="path-8-outside-8_2_813" maskUnits="userSpaceOnUse" x="500" y="423" width="85" height="44" fill="black">
<rect fill="white" x="500" y="423" width="85" height="44"/>
<path d="M578.207 465.5C581.406 465.5 584.042 462.894 583.596 459.725C582.35 450.853 578.254 442.564 571.845 436.155C564.062 428.372 553.506 424 542.5 424C531.494 424 520.938 428.372 513.155 436.155C506.746 442.564 502.65 450.853 501.404 459.725C500.958 462.894 503.594 465.5 506.793 465.5C509.992 465.5 512.529 462.882 513.145 459.743C514.281 453.952 517.114 448.581 521.348 444.348C526.958 438.738 534.566 435.586 542.5 435.586C550.434 435.586 558.042 438.738 563.652 444.348C567.886 448.581 570.719 453.952 571.855 459.743C572.471 462.882 575.008 465.5 578.207 465.5Z"/>
</mask>
<path d="M578.207 465.5C581.406 465.5 584.042 462.894 583.596 459.725C582.35 450.853 578.254 442.564 571.845 436.155C564.062 428.372 553.506 424 542.5 424C531.494 424 520.938 428.372 513.155 436.155C506.746 442.564 502.65 450.853 501.404 459.725C500.958 462.894 503.594 465.5 506.793 465.5C509.992 465.5 512.529 462.882 513.145 459.743C514.281 453.952 517.114 448.581 521.348 444.348C526.958 438.738 534.566 435.586 542.5 435.586C550.434 435.586 558.042 438.738 563.652 444.348C567.886 448.581 570.719 453.952 571.855 459.743C572.471 462.882 575.008 465.5 578.207 465.5Z" stroke="white" stroke-width="2" mask="url(#path-8-outside-8_2_813)"/>
<mask id="path-9-outside-9_2_813" maskUnits="userSpaceOnUse" x="250" y="0" width="85" height="44" fill="black">
<rect fill="white" x="250" width="85" height="44"/>
<path d="M328.207 42.5C331.406 42.5 334.042 39.8937 333.596 36.7255C332.35 27.8528 328.254 19.5638 321.845 13.1551C314.062 5.37231 303.506 1 292.5 1C281.494 0.999999 270.938 5.37231 263.155 13.1551C256.746 19.5638 252.65 27.8528 251.404 36.7255C250.958 39.8937 253.594 42.5 256.793 42.5C259.992 42.5 262.529 39.8825 263.145 36.7429C264.281 30.9525 267.114 25.5809 271.348 21.3476C276.958 15.7376 284.566 12.586 292.5 12.586C300.434 12.586 308.042 15.7376 313.652 21.3476C317.886 25.581 320.719 30.9525 321.855 36.7429C322.471 39.8825 325.008 42.5 328.207 42.5Z"/>
</mask>
<path d="M328.207 42.5C331.406 42.5 334.042 39.8937 333.596 36.7255C332.35 27.8528 328.254 19.5638 321.845 13.1551C314.062 5.37231 303.506 1 292.5 1C281.494 0.999999 270.938 5.37231 263.155 13.1551C256.746 19.5638 252.65 27.8528 251.404 36.7255C250.958 39.8937 253.594 42.5 256.793 42.5C259.992 42.5 262.529 39.8825 263.145 36.7429C264.281 30.9525 267.114 25.5809 271.348 21.3476C276.958 15.7376 284.566 12.586 292.5 12.586C300.434 12.586 308.042 15.7376 313.652 21.3476C317.886 25.581 320.719 30.9525 321.855 36.7429C322.471 39.8825 325.008 42.5 328.207 42.5Z" stroke="white" stroke-width="2" mask="url(#path-9-outside-9_2_813)"/>
<mask id="path-10-outside-10_2_813" maskUnits="userSpaceOnUse" x="750" y="0" width="85" height="44" fill="black">
<rect fill="white" x="750" width="85" height="44"/>
<path d="M828.207 42.5C831.406 42.5 834.042 39.8937 833.596 36.7255C832.35 27.8528 828.254 19.5638 821.845 13.1551C814.062 5.37231 803.506 1 792.5 1C781.494 0.999999 770.938 5.37231 763.155 13.1551C756.746 19.5638 752.65 27.8528 751.404 36.7255C750.958 39.8937 753.594 42.5 756.793 42.5C759.992 42.5 762.529 39.8825 763.145 36.7429C764.281 30.9525 767.114 25.5809 771.348 21.3476C776.958 15.7376 784.566 12.586 792.5 12.586C800.434 12.586 808.042 15.7376 813.652 21.3476C817.886 25.581 820.719 30.9525 821.855 36.7429C822.471 39.8825 825.008 42.5 828.207 42.5Z"/>
</mask>
<path d="M828.207 42.5C831.406 42.5 834.042 39.8937 833.596 36.7255C832.35 27.8528 828.254 19.5638 821.845 13.1551C814.062 5.37231 803.506 1 792.5 1C781.494 0.999999 770.938 5.37231 763.155 13.1551C756.746 19.5638 752.65 27.8528 751.404 36.7255C750.958 39.8937 753.594 42.5 756.793 42.5C759.992 42.5 762.529 39.8825 763.145 36.7429C764.281 30.9525 767.114 25.5809 771.348 21.3476C776.958 15.7376 784.566 12.586 792.5 12.586C800.434 12.586 808.042 15.7376 813.652 21.3476C817.886 25.581 820.719 30.9525 821.855 36.7429C822.471 39.8825 825.008 42.5 828.207 42.5Z" stroke="white" stroke-width="2" mask="url(#path-10-outside-10_2_813)"/>
<mask id="path-11-outside-11_2_813" maskUnits="userSpaceOnUse" x="250" y="282" width="85" height="44" fill="black">
<rect fill="white" x="250" y="282" width="85" height="44"/>
<path d="M328.207 324.5C331.406 324.5 334.042 321.894 333.596 318.725C332.35 309.853 328.254 301.564 321.845 295.155C314.062 287.372 303.506 283 292.5 283C281.494 283 270.938 287.372 263.155 295.155C256.746 301.564 252.65 309.853 251.404 318.725C250.958 321.894 253.594 324.5 256.793 324.5C259.992 324.5 262.529 321.882 263.145 318.743C264.281 312.952 267.114 307.581 271.348 303.348C276.958 297.738 284.566 294.586 292.5 294.586C300.434 294.586 308.042 297.738 313.652 303.348C317.886 307.581 320.719 312.952 321.855 318.743C322.471 321.882 325.008 324.5 328.207 324.5Z"/>
</mask>
<path d="M328.207 324.5C331.406 324.5 334.042 321.894 333.596 318.725C332.35 309.853 328.254 301.564 321.845 295.155C314.062 287.372 303.506 283 292.5 283C281.494 283 270.938 287.372 263.155 295.155C256.746 301.564 252.65 309.853 251.404 318.725C250.958 321.894 253.594 324.5 256.793 324.5C259.992 324.5 262.529 321.882 263.145 318.743C264.281 312.952 267.114 307.581 271.348 303.348C276.958 297.738 284.566 294.586 292.5 294.586C300.434 294.586 308.042 297.738 313.652 303.348C317.886 307.581 320.719 312.952 321.855 318.743C322.471 321.882 325.008 324.5 328.207 324.5Z" stroke="white" stroke-width="2" mask="url(#path-11-outside-11_2_813)"/>
<mask id="path-12-outside-12_2_813" maskUnits="userSpaceOnUse" x="750" y="282" width="85" height="44" fill="black">
<rect fill="white" x="750" y="282" width="85" height="44"/>
<path d="M828.207 324.5C831.406 324.5 834.042 321.894 833.596 318.725C832.35 309.853 828.254 301.564 821.845 295.155C814.062 287.372 803.506 283 792.5 283C781.494 283 770.938 287.372 763.155 295.155C756.746 301.564 752.65 309.853 751.404 318.725C750.958 321.894 753.594 324.5 756.793 324.5C759.992 324.5 762.529 321.882 763.145 318.743C764.281 312.952 767.114 307.581 771.348 303.348C776.958 297.738 784.566 294.586 792.5 294.586C800.434 294.586 808.042 297.738 813.652 303.348C817.886 307.581 820.719 312.952 821.855 318.743C822.471 321.882 825.008 324.5 828.207 324.5Z"/>
</mask>
<path d="M828.207 324.5C831.406 324.5 834.042 321.894 833.596 318.725C832.35 309.853 828.254 301.564 821.845 295.155C814.062 287.372 803.506 283 792.5 283C781.494 283 770.938 287.372 763.155 295.155C756.746 301.564 752.65 309.853 751.404 318.725C750.958 321.894 753.594 324.5 756.793 324.5C759.992 324.5 762.529 321.882 763.145 318.743C764.281 312.952 767.114 307.581 771.348 303.348C776.958 297.738 784.566 294.586 792.5 294.586C800.434 294.586 808.042 297.738 813.652 303.348C817.886 307.581 820.719 312.952 821.855 318.743C822.471 321.882 825.008 324.5 828.207 324.5Z" stroke="white" stroke-width="2" mask="url(#path-12-outside-12_2_813)"/>
<mask id="path-13-outside-13_2_813" maskUnits="userSpaceOnUse" x="250" y="141" width="85" height="44" fill="black">
<rect fill="white" x="250" y="141" width="85" height="44"/>
<path d="M328.207 183.5C331.406 183.5 334.042 180.894 333.596 177.725C332.35 168.853 328.254 160.564 321.845 154.155C314.062 146.372 303.506 142 292.5 142C281.494 142 270.938 146.372 263.155 154.155C256.746 160.564 252.65 168.853 251.404 177.725C250.958 180.894 253.594 183.5 256.793 183.5C259.992 183.5 262.529 180.882 263.145 177.743C264.281 171.952 267.114 166.581 271.348 162.348C276.958 156.738 284.566 153.586 292.5 153.586C300.434 153.586 308.042 156.738 313.652 162.348C317.886 166.581 320.719 171.952 321.855 177.743C322.471 180.882 325.008 183.5 328.207 183.5Z"/>
</mask>
<path d="M328.207 183.5C331.406 183.5 334.042 180.894 333.596 177.725C332.35 168.853 328.254 160.564 321.845 154.155C314.062 146.372 303.506 142 292.5 142C281.494 142 270.938 146.372 263.155 154.155C256.746 160.564 252.65 168.853 251.404 177.725C250.958 180.894 253.594 183.5 256.793 183.5C259.992 183.5 262.529 180.882 263.145 177.743C264.281 171.952 267.114 166.581 271.348 162.348C276.958 156.738 284.566 153.586 292.5 153.586C300.434 153.586 308.042 156.738 313.652 162.348C317.886 166.581 320.719 171.952 321.855 177.743C322.471 180.882 325.008 183.5 328.207 183.5Z" stroke="white" stroke-width="2" mask="url(#path-13-outside-13_2_813)"/>
<mask id="path-14-outside-14_2_813" maskUnits="userSpaceOnUse" x="750" y="141" width="85" height="44" fill="black">
<rect fill="white" x="750" y="141" width="85" height="44"/>
<path d="M828.207 183.5C831.406 183.5 834.042 180.894 833.596 177.725C832.35 168.853 828.254 160.564 821.845 154.155C814.062 146.372 803.506 142 792.5 142C781.494 142 770.938 146.372 763.155 154.155C756.746 160.564 752.65 168.853 751.404 177.725C750.958 180.894 753.594 183.5 756.793 183.5C759.992 183.5 762.529 180.882 763.145 177.743C764.281 171.952 767.114 166.581 771.348 162.348C776.958 156.738 784.566 153.586 792.5 153.586C800.434 153.586 808.042 156.738 813.652 162.348C817.886 166.581 820.719 171.952 821.855 177.743C822.471 180.882 825.008 183.5 828.207 183.5Z"/>
</mask>
<path d="M828.207 183.5C831.406 183.5 834.042 180.894 833.596 177.725C832.35 168.853 828.254 160.564 821.845 154.155C814.062 146.372 803.506 142 792.5 142C781.494 142 770.938 146.372 763.155 154.155C756.746 160.564 752.65 168.853 751.404 177.725C750.958 180.894 753.594 183.5 756.793 183.5C759.992 183.5 762.529 180.882 763.145 177.743C764.281 171.952 767.114 166.581 771.348 162.348C776.958 156.738 784.566 153.586 792.5 153.586C800.434 153.586 808.042 156.738 813.652 162.348C817.886 166.581 820.719 171.952 821.855 177.743C822.471 180.882 825.008 183.5 828.207 183.5Z" stroke="white" stroke-width="2" mask="url(#path-14-outside-14_2_813)"/>
<mask id="path-15-outside-15_2_813" maskUnits="userSpaceOnUse" x="250" y="423" width="85" height="44" fill="black">
<rect fill="white" x="250" y="423" width="85" height="44"/>
<path d="M328.207 465.5C331.406 465.5 334.042 462.894 333.596 459.725C332.35 450.853 328.254 442.564 321.845 436.155C314.062 428.372 303.506 424 292.5 424C281.494 424 270.938 428.372 263.155 436.155C256.746 442.564 252.65 450.853 251.404 459.725C250.958 462.894 253.594 465.5 256.793 465.5C259.992 465.5 262.529 462.882 263.145 459.743C264.281 453.952 267.114 448.581 271.348 444.348C276.958 438.738 284.566 435.586 292.5 435.586C300.434 435.586 308.042 438.738 313.652 444.348C317.886 448.581 320.719 453.952 321.855 459.743C322.471 462.882 325.008 465.5 328.207 465.5Z"/>
</mask>
<path d="M328.207 465.5C331.406 465.5 334.042 462.894 333.596 459.725C332.35 450.853 328.254 442.564 321.845 436.155C314.062 428.372 303.506 424 292.5 424C281.494 424 270.938 428.372 263.155 436.155C256.746 442.564 252.65 450.853 251.404 459.725C250.958 462.894 253.594 465.5 256.793 465.5C259.992 465.5 262.529 462.882 263.145 459.743C264.281 453.952 267.114 448.581 271.348 444.348C276.958 438.738 284.566 435.586 292.5 435.586C300.434 435.586 308.042 438.738 313.652 444.348C317.886 448.581 320.719 453.952 321.855 459.743C322.471 462.882 325.008 465.5 328.207 465.5Z" stroke="white" stroke-width="2" mask="url(#path-15-outside-15_2_813)"/>
<mask id="path-16-outside-16_2_813" maskUnits="userSpaceOnUse" x="750" y="423" width="85" height="44" fill="black">
<rect fill="white" x="750" y="423" width="85" height="44"/>
<path d="M828.207 465.5C831.406 465.5 834.042 462.894 833.596 459.725C832.35 450.853 828.254 442.564 821.845 436.155C814.062 428.372 803.506 424 792.5 424C781.494 424 770.938 428.372 763.155 436.155C756.746 442.564 752.65 450.853 751.404 459.725C750.958 462.894 753.594 465.5 756.793 465.5C759.992 465.5 762.529 462.882 763.145 459.743C764.281 453.952 767.114 448.581 771.348 444.348C776.958 438.738 784.566 435.586 792.5 435.586C800.434 435.586 808.042 438.738 813.652 444.348C817.886 448.581 820.719 453.952 821.855 459.743C822.471 462.882 825.008 465.5 828.207 465.5Z"/>
</mask>
<path d="M828.207 465.5C831.406 465.5 834.042 462.894 833.596 459.725C832.35 450.853 828.254 442.564 821.845 436.155C814.062 428.372 803.506 424 792.5 424C781.494 424 770.938 428.372 763.155 436.155C756.746 442.564 752.65 450.853 751.404 459.725C750.958 462.894 753.594 465.5 756.793 465.5C759.992 465.5 762.529 462.882 763.145 459.743C764.281 453.952 767.114 448.581 771.348 444.348C776.958 438.738 784.566 435.586 792.5 435.586C800.434 435.586 808.042 438.738 813.652 444.348C817.886 448.581 820.719 453.952 821.855 459.743C822.471 462.882 825.008 465.5 828.207 465.5Z" stroke="white" stroke-width="2" mask="url(#path-16-outside-16_2_813)"/>
<mask id="path-17-outside-17_2_813" maskUnits="userSpaceOnUse" x="125" y="0" width="85" height="44" fill="black">
<rect fill="white" x="125" width="85" height="44"/>
<path d="M203.207 42.5C206.406 42.5 209.042 39.8937 208.596 36.7255C207.35 27.8528 203.254 19.5638 196.845 13.1551C189.062 5.37231 178.506 1 167.5 1C156.494 0.999999 145.938 5.37231 138.155 13.1551C131.746 19.5638 127.65 27.8528 126.404 36.7255C125.958 39.8937 128.594 42.5 131.793 42.5C134.992 42.5 137.529 39.8825 138.145 36.7429C139.281 30.9525 142.114 25.5809 146.348 21.3476C151.958 15.7376 159.566 12.586 167.5 12.586C175.434 12.586 183.042 15.7376 188.652 21.3476C192.886 25.581 195.719 30.9525 196.855 36.7429C197.471 39.8825 200.008 42.5 203.207 42.5Z"/>
</mask>
<path d="M203.207 42.5C206.406 42.5 209.042 39.8937 208.596 36.7255C207.35 27.8528 203.254 19.5638 196.845 13.1551C189.062 5.37231 178.506 1 167.5 1C156.494 0.999999 145.938 5.37231 138.155 13.1551C131.746 19.5638 127.65 27.8528 126.404 36.7255C125.958 39.8937 128.594 42.5 131.793 42.5C134.992 42.5 137.529 39.8825 138.145 36.7429C139.281 30.9525 142.114 25.5809 146.348 21.3476C151.958 15.7376 159.566 12.586 167.5 12.586C175.434 12.586 183.042 15.7376 188.652 21.3476C192.886 25.581 195.719 30.9525 196.855 36.7429C197.471 39.8825 200.008 42.5 203.207 42.5Z" stroke="white" stroke-width="2" mask="url(#path-17-outside-17_2_813)"/>
<mask id="path-18-outside-18_2_813" maskUnits="userSpaceOnUse" x="625" y="0" width="85" height="44" fill="black">
<rect fill="white" x="625" width="85" height="44"/>
<path d="M703.207 42.5C706.406 42.5 709.042 39.8937 708.596 36.7255C707.35 27.8528 703.254 19.5638 696.845 13.1551C689.062 5.37231 678.506 1 667.5 1C656.494 0.999999 645.938 5.37231 638.155 13.1551C631.746 19.5638 627.65 27.8528 626.404 36.7255C625.958 39.8937 628.594 42.5 631.793 42.5C634.992 42.5 637.529 39.8825 638.145 36.7429C639.281 30.9525 642.114 25.5809 646.348 21.3476C651.958 15.7376 659.566 12.586 667.5 12.586C675.434 12.586 683.042 15.7376 688.652 21.3476C692.886 25.581 695.719 30.9525 696.855 36.7429C697.471 39.8825 700.008 42.5 703.207 42.5Z"/>
</mask>
<path d="M703.207 42.5C706.406 42.5 709.042 39.8937 708.596 36.7255C707.35 27.8528 703.254 19.5638 696.845 13.1551C689.062 5.37231 678.506 1 667.5 1C656.494 0.999999 645.938 5.37231 638.155 13.1551C631.746 19.5638 627.65 27.8528 626.404 36.7255C625.958 39.8937 628.594 42.5 631.793 42.5C634.992 42.5 637.529 39.8825 638.145 36.7429C639.281 30.9525 642.114 25.5809 646.348 21.3476C651.958 15.7376 659.566 12.586 667.5 12.586C675.434 12.586 683.042 15.7376 688.652 21.3476C692.886 25.581 695.719 30.9525 696.855 36.7429C697.471 39.8825 700.008 42.5 703.207 42.5Z" stroke="white" stroke-width="2" mask="url(#path-18-outside-18_2_813)"/>
<mask id="path-19-outside-19_2_813" maskUnits="userSpaceOnUse" x="125" y="282" width="85" height="44" fill="black">
<rect fill="white" x="125" y="282" width="85" height="44"/>
<path d="M203.207 324.5C206.406 324.5 209.042 321.894 208.596 318.725C207.35 309.853 203.254 301.564 196.845 295.155C189.062 287.372 178.506 283 167.5 283C156.494 283 145.938 287.372 138.155 295.155C131.746 301.564 127.65 309.853 126.404 318.725C125.958 321.894 128.594 324.5 131.793 324.5C134.992 324.5 137.529 321.882 138.145 318.743C139.281 312.952 142.114 307.581 146.348 303.348C151.958 297.738 159.566 294.586 167.5 294.586C175.434 294.586 183.042 297.738 188.652 303.348C192.886 307.581 195.719 312.952 196.855 318.743C197.471 321.882 200.008 324.5 203.207 324.5Z"/>
</mask>
<path d="M203.207 324.5C206.406 324.5 209.042 321.894 208.596 318.725C207.35 309.853 203.254 301.564 196.845 295.155C189.062 287.372 178.506 283 167.5 283C156.494 283 145.938 287.372 138.155 295.155C131.746 301.564 127.65 309.853 126.404 318.725C125.958 321.894 128.594 324.5 131.793 324.5C134.992 324.5 137.529 321.882 138.145 318.743C139.281 312.952 142.114 307.581 146.348 303.348C151.958 297.738 159.566 294.586 167.5 294.586C175.434 294.586 183.042 297.738 188.652 303.348C192.886 307.581 195.719 312.952 196.855 318.743C197.471 321.882 200.008 324.5 203.207 324.5Z" stroke="white" stroke-width="2" mask="url(#path-19-outside-19_2_813)"/>
<mask id="path-20-outside-20_2_813" maskUnits="userSpaceOnUse" x="625" y="282" width="85" height="44" fill="black">
<rect fill="white" x="625" y="282" width="85" height="44"/>
<path d="M703.207 324.5C706.406 324.5 709.042 321.894 708.596 318.725C707.35 309.853 703.254 301.564 696.845 295.155C689.062 287.372 678.506 283 667.5 283C656.494 283 645.938 287.372 638.155 295.155C631.746 301.564 627.65 309.853 626.404 318.725C625.958 321.894 628.594 324.5 631.793 324.5C634.992 324.5 637.529 321.882 638.145 318.743C639.281 312.952 642.114 307.581 646.348 303.348C651.958 297.738 659.566 294.586 667.5 294.586C675.434 294.586 683.042 297.738 688.652 303.348C692.886 307.581 695.719 312.952 696.855 318.743C697.471 321.882 700.008 324.5 703.207 324.5Z"/>
</mask>
<path d="M703.207 324.5C706.406 324.5 709.042 321.894 708.596 318.725C707.35 309.853 703.254 301.564 696.845 295.155C689.062 287.372 678.506 283 667.5 283C656.494 283 645.938 287.372 638.155 295.155C631.746 301.564 627.65 309.853 626.404 318.725C625.958 321.894 628.594 324.5 631.793 324.5C634.992 324.5 637.529 321.882 638.145 318.743C639.281 312.952 642.114 307.581 646.348 303.348C651.958 297.738 659.566 294.586 667.5 294.586C675.434 294.586 683.042 297.738 688.652 303.348C692.886 307.581 695.719 312.952 696.855 318.743C697.471 321.882 700.008 324.5 703.207 324.5Z" stroke="white" stroke-width="2" mask="url(#path-20-outside-20_2_813)"/>
<mask id="path-21-outside-21_2_813" maskUnits="userSpaceOnUse" x="125" y="141" width="85" height="44" fill="black">
<rect fill="white" x="125" y="141" width="85" height="44"/>
<path d="M203.207 183.5C206.406 183.5 209.042 180.894 208.596 177.725C207.35 168.853 203.254 160.564 196.845 154.155C189.062 146.372 178.506 142 167.5 142C156.494 142 145.938 146.372 138.155 154.155C131.746 160.564 127.65 168.853 126.404 177.725C125.958 180.894 128.594 183.5 131.793 183.5C134.992 183.5 137.529 180.882 138.145 177.743C139.281 171.952 142.114 166.581 146.348 162.348C151.958 156.738 159.566 153.586 167.5 153.586C175.434 153.586 183.042 156.738 188.652 162.348C192.886 166.581 195.719 171.952 196.855 177.743C197.471 180.882 200.008 183.5 203.207 183.5Z"/>
</mask>
<path d="M203.207 183.5C206.406 183.5 209.042 180.894 208.596 177.725C207.35 168.853 203.254 160.564 196.845 154.155C189.062 146.372 178.506 142 167.5 142C156.494 142 145.938 146.372 138.155 154.155C131.746 160.564 127.65 168.853 126.404 177.725C125.958 180.894 128.594 183.5 131.793 183.5C134.992 183.5 137.529 180.882 138.145 177.743C139.281 171.952 142.114 166.581 146.348 162.348C151.958 156.738 159.566 153.586 167.5 153.586C175.434 153.586 183.042 156.738 188.652 162.348C192.886 166.581 195.719 171.952 196.855 177.743C197.471 180.882 200.008 183.5 203.207 183.5Z" stroke="white" stroke-width="2" mask="url(#path-21-outside-21_2_813)"/>
<mask id="path-22-outside-22_2_813" maskUnits="userSpaceOnUse" x="625" y="141" width="85" height="44" fill="black">
<rect fill="white" x="625" y="141" width="85" height="44"/>
<path d="M703.207 183.5C706.406 183.5 709.042 180.894 708.596 177.725C707.35 168.853 703.254 160.564 696.845 154.155C689.062 146.372 678.506 142 667.5 142C656.494 142 645.938 146.372 638.155 154.155C631.746 160.564 627.65 168.853 626.404 177.725C625.958 180.894 628.594 183.5 631.793 183.5C634.992 183.5 637.529 180.882 638.145 177.743C639.281 171.952 642.114 166.581 646.348 162.348C651.958 156.738 659.566 153.586 667.5 153.586C675.434 153.586 683.042 156.738 688.652 162.348C692.886 166.581 695.719 171.952 696.855 177.743C697.471 180.882 700.008 183.5 703.207 183.5Z"/>
</mask>
<path d="M703.207 183.5C706.406 183.5 709.042 180.894 708.596 177.725C707.35 168.853 703.254 160.564 696.845 154.155C689.062 146.372 678.506 142 667.5 142C656.494 142 645.938 146.372 638.155 154.155C631.746 160.564 627.65 168.853 626.404 177.725C625.958 180.894 628.594 183.5 631.793 183.5C634.992 183.5 637.529 180.882 638.145 177.743C639.281 171.952 642.114 166.581 646.348 162.348C651.958 156.738 659.566 153.586 667.5 153.586C675.434 153.586 683.042 156.738 688.652 162.348C692.886 166.581 695.719 171.952 696.855 177.743C697.471 180.882 700.008 183.5 703.207 183.5Z" stroke="white" stroke-width="2" mask="url(#path-22-outside-22_2_813)"/>
<mask id="path-23-outside-23_2_813" maskUnits="userSpaceOnUse" x="125" y="423" width="85" height="44" fill="black">
<rect fill="white" x="125" y="423" width="85" height="44"/>
<path d="M203.207 465.5C206.406 465.5 209.042 462.894 208.596 459.725C207.35 450.853 203.254 442.564 196.845 436.155C189.062 428.372 178.506 424 167.5 424C156.494 424 145.938 428.372 138.155 436.155C131.746 442.564 127.65 450.853 126.404 459.725C125.958 462.894 128.594 465.5 131.793 465.5C134.992 465.5 137.529 462.882 138.145 459.743C139.281 453.952 142.114 448.581 146.348 444.348C151.958 438.738 159.566 435.586 167.5 435.586C175.434 435.586 183.042 438.738 188.652 444.348C192.886 448.581 195.719 453.952 196.855 459.743C197.471 462.882 200.008 465.5 203.207 465.5Z"/>
</mask>
<path d="M203.207 465.5C206.406 465.5 209.042 462.894 208.596 459.725C207.35 450.853 203.254 442.564 196.845 436.155C189.062 428.372 178.506 424 167.5 424C156.494 424 145.938 428.372 138.155 436.155C131.746 442.564 127.65 450.853 126.404 459.725C125.958 462.894 128.594 465.5 131.793 465.5C134.992 465.5 137.529 462.882 138.145 459.743C139.281 453.952 142.114 448.581 146.348 444.348C151.958 438.738 159.566 435.586 167.5 435.586C175.434 435.586 183.042 438.738 188.652 444.348C192.886 448.581 195.719 453.952 196.855 459.743C197.471 462.882 200.008 465.5 203.207 465.5Z" stroke="white" stroke-width="2" mask="url(#path-23-outside-23_2_813)"/>
<mask id="path-24-outside-24_2_813" maskUnits="userSpaceOnUse" x="625" y="423" width="85" height="44" fill="black">
<rect fill="white" x="625" y="423" width="85" height="44"/>
<path d="M703.207 465.5C706.406 465.5 709.042 462.894 708.596 459.725C707.35 450.853 703.254 442.564 696.845 436.155C689.062 428.372 678.506 424 667.5 424C656.494 424 645.938 428.372 638.155 436.155C631.746 442.564 627.65 450.853 626.404 459.725C625.958 462.894 628.594 465.5 631.793 465.5C634.992 465.5 637.529 462.882 638.145 459.743C639.281 453.952 642.114 448.581 646.348 444.348C651.958 438.738 659.566 435.586 667.5 435.586C675.434 435.586 683.042 438.738 688.652 444.348C692.886 448.581 695.719 453.952 696.855 459.743C697.471 462.882 700.008 465.5 703.207 465.5Z"/>
</mask>
<path d="M703.207 465.5C706.406 465.5 709.042 462.894 708.596 459.725C707.35 450.853 703.254 442.564 696.845 436.155C689.062 428.372 678.506 424 667.5 424C656.494 424 645.938 428.372 638.155 436.155C631.746 442.564 627.65 450.853 626.404 459.725C625.958 462.894 628.594 465.5 631.793 465.5C634.992 465.5 637.529 462.882 638.145 459.743C639.281 453.952 642.114 448.581 646.348 444.348C651.958 438.738 659.566 435.586 667.5 435.586C675.434 435.586 683.042 438.738 688.652 444.348C692.886 448.581 695.719 453.952 696.855 459.743C697.471 462.882 700.008 465.5 703.207 465.5Z" stroke="white" stroke-width="2" mask="url(#path-24-outside-24_2_813)"/>
<mask id="path-25-outside-25_2_813" maskUnits="userSpaceOnUse" x="375" y="0" width="85" height="44" fill="black">
<rect fill="white" x="375" width="85" height="44"/>
<path d="M453.207 42.5C456.406 42.5 459.042 39.8937 458.596 36.7255C457.35 27.8528 453.254 19.5638 446.845 13.1551C439.062 5.37231 428.506 1 417.5 1C406.494 0.999999 395.938 5.37231 388.155 13.1551C381.746 19.5638 377.65 27.8528 376.404 36.7255C375.958 39.8937 378.594 42.5 381.793 42.5C384.992 42.5 387.529 39.8825 388.145 36.7429C389.281 30.9525 392.114 25.5809 396.348 21.3476C401.958 15.7376 409.566 12.586 417.5 12.586C425.434 12.586 433.042 15.7376 438.652 21.3476C442.886 25.581 445.719 30.9525 446.855 36.7429C447.471 39.8825 450.008 42.5 453.207 42.5Z"/>
</mask>
<path d="M453.207 42.5C456.406 42.5 459.042 39.8937 458.596 36.7255C457.35 27.8528 453.254 19.5638 446.845 13.1551C439.062 5.37231 428.506 1 417.5 1C406.494 0.999999 395.938 5.37231 388.155 13.1551C381.746 19.5638 377.65 27.8528 376.404 36.7255C375.958 39.8937 378.594 42.5 381.793 42.5C384.992 42.5 387.529 39.8825 388.145 36.7429C389.281 30.9525 392.114 25.5809 396.348 21.3476C401.958 15.7376 409.566 12.586 417.5 12.586C425.434 12.586 433.042 15.7376 438.652 21.3476C442.886 25.581 445.719 30.9525 446.855 36.7429C447.471 39.8825 450.008 42.5 453.207 42.5Z" stroke="white" stroke-width="2" mask="url(#path-25-outside-25_2_813)"/>
<mask id="path-26-outside-26_2_813" maskUnits="userSpaceOnUse" x="875" y="0" width="85" height="44" fill="black">
<rect fill="white" x="875" width="85" height="44"/>
<path d="M953.207 42.5C956.406 42.5 959.042 39.8937 958.596 36.7255C957.35 27.8528 953.254 19.5638 946.845 13.1551C939.062 5.37231 928.506 1 917.5 1C906.494 0.999999 895.938 5.37231 888.155 13.1551C881.746 19.5638 877.65 27.8528 876.404 36.7255C875.958 39.8937 878.594 42.5 881.793 42.5C884.992 42.5 887.529 39.8825 888.145 36.7429C889.281 30.9525 892.114 25.5809 896.348 21.3476C901.958 15.7376 909.566 12.586 917.5 12.586C925.434 12.586 933.042 15.7376 938.652 21.3476C942.886 25.581 945.719 30.9525 946.855 36.7429C947.471 39.8825 950.008 42.5 953.207 42.5Z"/>
</mask>
<path d="M953.207 42.5C956.406 42.5 959.042 39.8937 958.596 36.7255C957.35 27.8528 953.254 19.5638 946.845 13.1551C939.062 5.37231 928.506 1 917.5 1C906.494 0.999999 895.938 5.37231 888.155 13.1551C881.746 19.5638 877.65 27.8528 876.404 36.7255C875.958 39.8937 878.594 42.5 881.793 42.5C884.992 42.5 887.529 39.8825 888.145 36.7429C889.281 30.9525 892.114 25.5809 896.348 21.3476C901.958 15.7376 909.566 12.586 917.5 12.586C925.434 12.586 933.042 15.7376 938.652 21.3476C942.886 25.581 945.719 30.9525 946.855 36.7429C947.471 39.8825 950.008 42.5 953.207 42.5Z" stroke="white" stroke-width="2" mask="url(#path-26-outside-26_2_813)"/>
<mask id="path-27-outside-27_2_813" maskUnits="userSpaceOnUse" x="375" y="282" width="85" height="44" fill="black">
<rect fill="white" x="375" y="282" width="85" height="44"/>
<path d="M453.207 324.5C456.406 324.5 459.042 321.894 458.596 318.725C457.35 309.853 453.254 301.564 446.845 295.155C439.062 287.372 428.506 283 417.5 283C406.494 283 395.938 287.372 388.155 295.155C381.746 301.564 377.65 309.853 376.404 318.725C375.958 321.894 378.594 324.5 381.793 324.5C384.992 324.5 387.529 321.882 388.145 318.743C389.281 312.952 392.114 307.581 396.348 303.348C401.958 297.738 409.566 294.586 417.5 294.586C425.434 294.586 433.042 297.738 438.652 303.348C442.886 307.581 445.719 312.952 446.855 318.743C447.471 321.882 450.008 324.5 453.207 324.5Z"/>
</mask>
<path d="M453.207 324.5C456.406 324.5 459.042 321.894 458.596 318.725C457.35 309.853 453.254 301.564 446.845 295.155C439.062 287.372 428.506 283 417.5 283C406.494 283 395.938 287.372 388.155 295.155C381.746 301.564 377.65 309.853 376.404 318.725C375.958 321.894 378.594 324.5 381.793 324.5C384.992 324.5 387.529 321.882 388.145 318.743C389.281 312.952 392.114 307.581 396.348 303.348C401.958 297.738 409.566 294.586 417.5 294.586C425.434 294.586 433.042 297.738 438.652 303.348C442.886 307.581 445.719 312.952 446.855 318.743C447.471 321.882 450.008 324.5 453.207 324.5Z" stroke="white" stroke-width="2" mask="url(#path-27-outside-27_2_813)"/>
<mask id="path-28-outside-28_2_813" maskUnits="userSpaceOnUse" x="875" y="282" width="85" height="44" fill="black">
<rect fill="white" x="875" y="282" width="85" height="44"/>
<path d="M953.207 324.5C956.406 324.5 959.042 321.894 958.596 318.725C957.35 309.853 953.254 301.564 946.845 295.155C939.062 287.372 928.506 283 917.5 283C906.494 283 895.938 287.372 888.155 295.155C881.746 301.564 877.65 309.853 876.404 318.725C875.958 321.894 878.594 324.5 881.793 324.5C884.992 324.5 887.529 321.882 888.145 318.743C889.281 312.952 892.114 307.581 896.348 303.348C901.958 297.738 909.566 294.586 917.5 294.586C925.434 294.586 933.042 297.738 938.652 303.348C942.886 307.581 945.719 312.952 946.855 318.743C947.471 321.882 950.008 324.5 953.207 324.5Z"/>
</mask>
<path d="M953.207 324.5C956.406 324.5 959.042 321.894 958.596 318.725C957.35 309.853 953.254 301.564 946.845 295.155C939.062 287.372 928.506 283 917.5 283C906.494 283 895.938 287.372 888.155 295.155C881.746 301.564 877.65 309.853 876.404 318.725C875.958 321.894 878.594 324.5 881.793 324.5C884.992 324.5 887.529 321.882 888.145 318.743C889.281 312.952 892.114 307.581 896.348 303.348C901.958 297.738 909.566 294.586 917.5 294.586C925.434 294.586 933.042 297.738 938.652 303.348C942.886 307.581 945.719 312.952 946.855 318.743C947.471 321.882 950.008 324.5 953.207 324.5Z" stroke="white" stroke-width="2" mask="url(#path-28-outside-28_2_813)"/>
<mask id="path-29-outside-29_2_813" maskUnits="userSpaceOnUse" x="375" y="141" width="85" height="44" fill="black">
<rect fill="white" x="375" y="141" width="85" height="44"/>
<path d="M453.207 183.5C456.406 183.5 459.042 180.894 458.596 177.725C457.35 168.853 453.254 160.564 446.845 154.155C439.062 146.372 428.506 142 417.5 142C406.494 142 395.938 146.372 388.155 154.155C381.746 160.564 377.65 168.853 376.404 177.725C375.958 180.894 378.594 183.5 381.793 183.5C384.992 183.5 387.529 180.882 388.145 177.743C389.281 171.952 392.114 166.581 396.348 162.348C401.958 156.738 409.566 153.586 417.5 153.586C425.434 153.586 433.042 156.738 438.652 162.348C442.886 166.581 445.719 171.952 446.855 177.743C447.471 180.882 450.008 183.5 453.207 183.5Z"/>
</mask>
<path d="M453.207 183.5C456.406 183.5 459.042 180.894 458.596 177.725C457.35 168.853 453.254 160.564 446.845 154.155C439.062 146.372 428.506 142 417.5 142C406.494 142 395.938 146.372 388.155 154.155C381.746 160.564 377.65 168.853 376.404 177.725C375.958 180.894 378.594 183.5 381.793 183.5C384.992 183.5 387.529 180.882 388.145 177.743C389.281 171.952 392.114 166.581 396.348 162.348C401.958 156.738 409.566 153.586 417.5 153.586C425.434 153.586 433.042 156.738 438.652 162.348C442.886 166.581 445.719 171.952 446.855 177.743C447.471 180.882 450.008 183.5 453.207 183.5Z" stroke="white" stroke-width="2" mask="url(#path-29-outside-29_2_813)"/>
<mask id="path-30-outside-30_2_813" maskUnits="userSpaceOnUse" x="875" y="141" width="85" height="44" fill="black">
<rect fill="white" x="875" y="141" width="85" height="44"/>
<path d="M953.207 183.5C956.406 183.5 959.042 180.894 958.596 177.725C957.35 168.853 953.254 160.564 946.845 154.155C939.062 146.372 928.506 142 917.5 142C906.494 142 895.938 146.372 888.155 154.155C881.746 160.564 877.65 168.853 876.404 177.725C875.958 180.894 878.594 183.5 881.793 183.5C884.992 183.5 887.529 180.882 888.145 177.743C889.281 171.952 892.114 166.581 896.348 162.348C901.958 156.738 909.566 153.586 917.5 153.586C925.434 153.586 933.042 156.738 938.652 162.348C942.886 166.581 945.719 171.952 946.855 177.743C947.471 180.882 950.008 183.5 953.207 183.5Z"/>
</mask>
<path d="M953.207 183.5C956.406 183.5 959.042 180.894 958.596 177.725C957.35 168.853 953.254 160.564 946.845 154.155C939.062 146.372 928.506 142 917.5 142C906.494 142 895.938 146.372 888.155 154.155C881.746 160.564 877.65 168.853 876.404 177.725C875.958 180.894 878.594 183.5 881.793 183.5C884.992 183.5 887.529 180.882 888.145 177.743C889.281 171.952 892.114 166.581 896.348 162.348C901.958 156.738 909.566 153.586 917.5 153.586C925.434 153.586 933.042 156.738 938.652 162.348C942.886 166.581 945.719 171.952 946.855 177.743C947.471 180.882 950.008 183.5 953.207 183.5Z" stroke="white" stroke-width="2" mask="url(#path-30-outside-30_2_813)"/>
<mask id="path-31-outside-31_2_813" maskUnits="userSpaceOnUse" x="375" y="423" width="85" height="44" fill="black">
<rect fill="white" x="375" y="423" width="85" height="44"/>
<path d="M453.207 465.5C456.406 465.5 459.042 462.894 458.596 459.725C457.35 450.853 453.254 442.564 446.845 436.155C439.062 428.372 428.506 424 417.5 424C406.494 424 395.938 428.372 388.155 436.155C381.746 442.564 377.65 450.853 376.404 459.725C375.958 462.894 378.594 465.5 381.793 465.5C384.992 465.5 387.529 462.882 388.145 459.743C389.281 453.952 392.114 448.581 396.348 444.348C401.958 438.738 409.566 435.586 417.5 435.586C425.434 435.586 433.042 438.738 438.652 444.348C442.886 448.581 445.719 453.952 446.855 459.743C447.471 462.882 450.008 465.5 453.207 465.5Z"/>
</mask>
<path d="M453.207 465.5C456.406 465.5 459.042 462.894 458.596 459.725C457.35 450.853 453.254 442.564 446.845 436.155C439.062 428.372 428.506 424 417.5 424C406.494 424 395.938 428.372 388.155 436.155C381.746 442.564 377.65 450.853 376.404 459.725C375.958 462.894 378.594 465.5 381.793 465.5C384.992 465.5 387.529 462.882 388.145 459.743C389.281 453.952 392.114 448.581 396.348 444.348C401.958 438.738 409.566 435.586 417.5 435.586C425.434 435.586 433.042 438.738 438.652 444.348C442.886 448.581 445.719 453.952 446.855 459.743C447.471 462.882 450.008 465.5 453.207 465.5Z" stroke="white" stroke-width="2" mask="url(#path-31-outside-31_2_813)"/>
<mask id="path-32-outside-32_2_813" maskUnits="userSpaceOnUse" x="875" y="423" width="85" height="44" fill="black">
<rect fill="white" x="875" y="423" width="85" height="44"/>
<path d="M953.207 465.5C956.406 465.5 959.042 462.894 958.596 459.725C957.35 450.853 953.254 442.564 946.845 436.155C939.062 428.372 928.506 424 917.5 424C906.494 424 895.938 428.372 888.155 436.155C881.746 442.564 877.65 450.853 876.404 459.725C875.958 462.894 878.594 465.5 881.793 465.5C884.992 465.5 887.529 462.882 888.145 459.743C889.281 453.952 892.114 448.581 896.348 444.348C901.958 438.738 909.566 435.586 917.5 435.586C925.434 435.586 933.042 438.738 938.652 444.348C942.886 448.581 945.719 453.952 946.855 459.743C947.471 462.882 950.008 465.5 953.207 465.5Z"/>
</mask>
<path d="M953.207 465.5C956.406 465.5 959.042 462.894 958.596 459.725C957.35 450.853 953.254 442.564 946.845 436.155C939.062 428.372 928.506 424 917.5 424C906.494 424 895.938 428.372 888.155 436.155C881.746 442.564 877.65 450.853 876.404 459.725C875.958 462.894 878.594 465.5 881.793 465.5C884.992 465.5 887.529 462.882 888.145 459.743C889.281 453.952 892.114 448.581 896.348 444.348C901.958 438.738 909.566 435.586 917.5 435.586C925.434 435.586 933.042 438.738 938.652 444.348C942.886 448.581 945.719 453.952 946.855 459.743C947.471 462.882 950.008 465.5 953.207 465.5Z" stroke="white" stroke-width="2" mask="url(#path-32-outside-32_2_813)"/>
<mask id="path-33-outside-33_2_813" maskUnits="userSpaceOnUse" x="42" y="75" width="85" height="44" fill="black">
<rect fill="white" x="42" y="75" width="85" height="44"/>
<path d="M48.793 76.5C45.5936 76.5 42.9584 79.1063 43.4035 82.2745C44.6501 91.1472 48.7463 99.4362 55.1551 105.845C62.9378 113.628 73.4935 118 84.5 118C95.5065 118 106.062 113.628 113.845 105.845C120.254 99.4362 124.35 91.1472 125.596 82.2745C126.042 79.1063 123.406 76.5 120.207 76.5C117.008 76.5 114.471 79.1175 113.855 82.2571C112.719 88.0475 109.886 93.4191 105.652 97.6524C100.042 103.262 92.4337 106.414 84.5 106.414C76.5663 106.414 68.9576 103.262 63.3476 97.6524C59.1143 93.419 56.2808 88.0475 55.1451 82.2571C54.5293 79.1175 51.9924 76.5 48.793 76.5Z"/>
</mask>
<path d="M48.793 76.5C45.5936 76.5 42.9584 79.1063 43.4035 82.2745C44.6501 91.1472 48.7463 99.4362 55.1551 105.845C62.9378 113.628 73.4935 118 84.5 118C95.5065 118 106.062 113.628 113.845 105.845C120.254 99.4362 124.35 91.1472 125.596 82.2745C126.042 79.1063 123.406 76.5 120.207 76.5C117.008 76.5 114.471 79.1175 113.855 82.2571C112.719 88.0475 109.886 93.4191 105.652 97.6524C100.042 103.262 92.4337 106.414 84.5 106.414C76.5663 106.414 68.9576 103.262 63.3476 97.6524C59.1143 93.419 56.2808 88.0475 55.1451 82.2571C54.5293 79.1175 51.9924 76.5 48.793 76.5Z" stroke="white" stroke-width="2" mask="url(#path-33-outside-33_2_813)"/>
<mask id="path-34-outside-34_2_813" maskUnits="userSpaceOnUse" x="542" y="75" width="85" height="44" fill="black">
<rect fill="white" x="542" y="75" width="85" height="44"/>
<path d="M548.793 76.5C545.594 76.5 542.958 79.1063 543.404 82.2745C544.65 91.1472 548.746 99.4362 555.155 105.845C562.938 113.628 573.494 118 584.5 118C595.506 118 606.062 113.628 613.845 105.845C620.254 99.4362 624.35 91.1472 625.596 82.2745C626.042 79.1063 623.406 76.5 620.207 76.5C617.008 76.5 614.471 79.1175 613.855 82.2571C612.719 88.0475 609.886 93.4191 605.652 97.6524C600.042 103.262 592.434 106.414 584.5 106.414C576.566 106.414 568.958 103.262 563.348 97.6524C559.114 93.419 556.281 88.0475 555.145 82.2571C554.529 79.1175 551.992 76.5 548.793 76.5Z"/>
</mask>
<path d="M548.793 76.5C545.594 76.5 542.958 79.1063 543.404 82.2745C544.65 91.1472 548.746 99.4362 555.155 105.845C562.938 113.628 573.494 118 584.5 118C595.506 118 606.062 113.628 613.845 105.845C620.254 99.4362 624.35 91.1472 625.596 82.2745C626.042 79.1063 623.406 76.5 620.207 76.5C617.008 76.5 614.471 79.1175 613.855 82.2571C612.719 88.0475 609.886 93.4191 605.652 97.6524C600.042 103.262 592.434 106.414 584.5 106.414C576.566 106.414 568.958 103.262 563.348 97.6524C559.114 93.419 556.281 88.0475 555.145 82.2571C554.529 79.1175 551.992 76.5 548.793 76.5Z" stroke="white" stroke-width="2" mask="url(#path-34-outside-34_2_813)"/>
<mask id="path-35-outside-35_2_813" maskUnits="userSpaceOnUse" x="42" y="357" width="85" height="44" fill="black">
<rect fill="white" x="42" y="357" width="85" height="44"/>
<path d="M48.793 358.5C45.5936 358.5 42.9584 361.106 43.4035 364.275C44.6501 373.147 48.7463 381.436 55.1551 387.845C62.9378 395.628 73.4935 400 84.5 400C95.5065 400 106.062 395.628 113.845 387.845C120.254 381.436 124.35 373.147 125.596 364.275C126.042 361.106 123.406 358.5 120.207 358.5C117.008 358.5 114.471 361.118 113.855 364.257C112.719 370.048 109.886 375.419 105.652 379.652C100.042 385.262 92.4337 388.414 84.5 388.414C76.5663 388.414 68.9576 385.262 63.3476 379.652C59.1143 375.419 56.2808 370.048 55.1451 364.257C54.5293 361.118 51.9924 358.5 48.793 358.5Z"/>
</mask>
<path d="M48.793 358.5C45.5936 358.5 42.9584 361.106 43.4035 364.275C44.6501 373.147 48.7463 381.436 55.1551 387.845C62.9378 395.628 73.4935 400 84.5 400C95.5065 400 106.062 395.628 113.845 387.845C120.254 381.436 124.35 373.147 125.596 364.275C126.042 361.106 123.406 358.5 120.207 358.5C117.008 358.5 114.471 361.118 113.855 364.257C112.719 370.048 109.886 375.419 105.652 379.652C100.042 385.262 92.4337 388.414 84.5 388.414C76.5663 388.414 68.9576 385.262 63.3476 379.652C59.1143 375.419 56.2808 370.048 55.1451 364.257C54.5293 361.118 51.9924 358.5 48.793 358.5Z" stroke="white" stroke-width="2" mask="url(#path-35-outside-35_2_813)"/>
<mask id="path-36-outside-36_2_813" maskUnits="userSpaceOnUse" x="542" y="357" width="85" height="44" fill="black">
<rect fill="white" x="542" y="357" width="85" height="44"/>
<path d="M548.793 358.5C545.594 358.5 542.958 361.106 543.404 364.275C544.65 373.147 548.746 381.436 555.155 387.845C562.938 395.628 573.494 400 584.5 400C595.506 400 606.062 395.628 613.845 387.845C620.254 381.436 624.35 373.147 625.596 364.275C626.042 361.106 623.406 358.5 620.207 358.5C617.008 358.5 614.471 361.118 613.855 364.257C612.719 370.048 609.886 375.419 605.652 379.652C600.042 385.262 592.434 388.414 584.5 388.414C576.566 388.414 568.958 385.262 563.348 379.652C559.114 375.419 556.281 370.048 555.145 364.257C554.529 361.118 551.992 358.5 548.793 358.5Z"/>
</mask>
<path d="M548.793 358.5C545.594 358.5 542.958 361.106 543.404 364.275C544.65 373.147 548.746 381.436 555.155 387.845C562.938 395.628 573.494 400 584.5 400C595.506 400 606.062 395.628 613.845 387.845C620.254 381.436 624.35 373.147 625.596 364.275C626.042 361.106 623.406 358.5 620.207 358.5C617.008 358.5 614.471 361.118 613.855 364.257C612.719 370.048 609.886 375.419 605.652 379.652C600.042 385.262 592.434 388.414 584.5 388.414C576.566 388.414 568.958 385.262 563.348 379.652C559.114 375.419 556.281 370.048 555.145 364.257C554.529 361.118 551.992 358.5 548.793 358.5Z" stroke="white" stroke-width="2" mask="url(#path-36-outside-36_2_813)"/>
<mask id="path-37-outside-37_2_813" maskUnits="userSpaceOnUse" x="42" y="216" width="85" height="44" fill="black">
<rect fill="white" x="42" y="216" width="85" height="44"/>
<path d="M48.793 217.5C45.5936 217.5 42.9584 220.106 43.4035 223.275C44.6501 232.147 48.7463 240.436 55.1551 246.845C62.9378 254.628 73.4935 259 84.5 259C95.5065 259 106.062 254.628 113.845 246.845C120.254 240.436 124.35 232.147 125.596 223.275C126.042 220.106 123.406 217.5 120.207 217.5C117.008 217.5 114.471 220.118 113.855 223.257C112.719 229.048 109.886 234.419 105.652 238.652C100.042 244.262 92.4337 247.414 84.5 247.414C76.5663 247.414 68.9576 244.262 63.3476 238.652C59.1143 234.419 56.2808 229.048 55.1451 223.257C54.5293 220.118 51.9924 217.5 48.793 217.5Z"/>
</mask>
<path d="M48.793 217.5C45.5936 217.5 42.9584 220.106 43.4035 223.275C44.6501 232.147 48.7463 240.436 55.1551 246.845C62.9378 254.628 73.4935 259 84.5 259C95.5065 259 106.062 254.628 113.845 246.845C120.254 240.436 124.35 232.147 125.596 223.275C126.042 220.106 123.406 217.5 120.207 217.5C117.008 217.5 114.471 220.118 113.855 223.257C112.719 229.048 109.886 234.419 105.652 238.652C100.042 244.262 92.4337 247.414 84.5 247.414C76.5663 247.414 68.9576 244.262 63.3476 238.652C59.1143 234.419 56.2808 229.048 55.1451 223.257C54.5293 220.118 51.9924 217.5 48.793 217.5Z" stroke="white" stroke-width="2" mask="url(#path-37-outside-37_2_813)"/>
<mask id="path-38-outside-38_2_813" maskUnits="userSpaceOnUse" x="542" y="216" width="85" height="44" fill="black">
<rect fill="white" x="542" y="216" width="85" height="44"/>
<path d="M548.793 217.5C545.594 217.5 542.958 220.106 543.404 223.275C544.65 232.147 548.746 240.436 555.155 246.845C562.938 254.628 573.494 259 584.5 259C595.506 259 606.062 254.628 613.845 246.845C620.254 240.436 624.35 232.147 625.596 223.275C626.042 220.106 623.406 217.5 620.207 217.5C617.008 217.5 614.471 220.118 613.855 223.257C612.719 229.048 609.886 234.419 605.652 238.652C600.042 244.262 592.434 247.414 584.5 247.414C576.566 247.414 568.958 244.262 563.348 238.652C559.114 234.419 556.281 229.048 555.145 223.257C554.529 220.118 551.992 217.5 548.793 217.5Z"/>
</mask>
<path d="M548.793 217.5C545.594 217.5 542.958 220.106 543.404 223.275C544.65 232.147 548.746 240.436 555.155 246.845C562.938 254.628 573.494 259 584.5 259C595.506 259 606.062 254.628 613.845 246.845C620.254 240.436 624.35 232.147 625.596 223.275C626.042 220.106 623.406 217.5 620.207 217.5C617.008 217.5 614.471 220.118 613.855 223.257C612.719 229.048 609.886 234.419 605.652 238.652C600.042 244.262 592.434 247.414 584.5 247.414C576.566 247.414 568.958 244.262 563.348 238.652C559.114 234.419 556.281 229.048 555.145 223.257C554.529 220.118 551.992 217.5 548.793 217.5Z" stroke="white" stroke-width="2" mask="url(#path-38-outside-38_2_813)"/>
<mask id="path-39-outside-39_2_813" maskUnits="userSpaceOnUse" x="42" y="498" width="85" height="44" fill="black">
<rect fill="white" x="42" y="498" width="85" height="44"/>
<path d="M48.793 499.5C45.5936 499.5 42.9584 502.106 43.4035 505.275C44.6501 514.147 48.7463 522.436 55.1551 528.845C62.9378 536.628 73.4935 541 84.5 541C95.5065 541 106.062 536.628 113.845 528.845C120.254 522.436 124.35 514.147 125.596 505.275C126.042 502.106 123.406 499.5 120.207 499.5C117.008 499.5 114.471 502.118 113.855 505.257C112.719 511.048 109.886 516.419 105.652 520.652C100.042 526.262 92.4337 529.414 84.5 529.414C76.5663 529.414 68.9576 526.262 63.3476 520.652C59.1143 516.419 56.2808 511.048 55.1451 505.257C54.5293 502.118 51.9924 499.5 48.793 499.5Z"/>
</mask>
<path d="M48.793 499.5C45.5936 499.5 42.9584 502.106 43.4035 505.275C44.6501 514.147 48.7463 522.436 55.1551 528.845C62.9378 536.628 73.4935 541 84.5 541C95.5065 541 106.062 536.628 113.845 528.845C120.254 522.436 124.35 514.147 125.596 505.275C126.042 502.106 123.406 499.5 120.207 499.5C117.008 499.5 114.471 502.118 113.855 505.257C112.719 511.048 109.886 516.419 105.652 520.652C100.042 526.262 92.4337 529.414 84.5 529.414C76.5663 529.414 68.9576 526.262 63.3476 520.652C59.1143 516.419 56.2808 511.048 55.1451 505.257C54.5293 502.118 51.9924 499.5 48.793 499.5Z" stroke="white" stroke-width="2" mask="url(#path-39-outside-39_2_813)"/>
<mask id="path-40-outside-40_2_813" maskUnits="userSpaceOnUse" x="542" y="498" width="85" height="44" fill="black">
<rect fill="white" x="542" y="498" width="85" height="44"/>
<path d="M548.793 499.5C545.594 499.5 542.958 502.106 543.404 505.275C544.65 514.147 548.746 522.436 555.155 528.845C562.938 536.628 573.494 541 584.5 541C595.506 541 606.062 536.628 613.845 528.845C620.254 522.436 624.35 514.147 625.596 505.275C626.042 502.106 623.406 499.5 620.207 499.5C617.008 499.5 614.471 502.118 613.855 505.257C612.719 511.048 609.886 516.419 605.652 520.652C600.042 526.262 592.434 529.414 584.5 529.414C576.566 529.414 568.958 526.262 563.348 520.652C559.114 516.419 556.281 511.048 555.145 505.257C554.529 502.118 551.992 499.5 548.793 499.5Z"/>
</mask>
<path d="M548.793 499.5C545.594 499.5 542.958 502.106 543.404 505.275C544.65 514.147 548.746 522.436 555.155 528.845C562.938 536.628 573.494 541 584.5 541C595.506 541 606.062 536.628 613.845 528.845C620.254 522.436 624.35 514.147 625.596 505.275C626.042 502.106 623.406 499.5 620.207 499.5C617.008 499.5 614.471 502.118 613.855 505.257C612.719 511.048 609.886 516.419 605.652 520.652C600.042 526.262 592.434 529.414 584.5 529.414C576.566 529.414 568.958 526.262 563.348 520.652C559.114 516.419 556.281 511.048 555.145 505.257C554.529 502.118 551.992 499.5 548.793 499.5Z" stroke="white" stroke-width="2" mask="url(#path-40-outside-40_2_813)"/>
<mask id="path-41-outside-41_2_813" maskUnits="userSpaceOnUse" x="292" y="75" width="85" height="44" fill="black">
<rect fill="white" x="292" y="75" width="85" height="44"/>
<path d="M298.793 76.5C295.594 76.5 292.958 79.1063 293.404 82.2745C294.65 91.1472 298.746 99.4362 305.155 105.845C312.938 113.628 323.494 118 334.5 118C345.506 118 356.062 113.628 363.845 105.845C370.254 99.4362 374.35 91.1472 375.596 82.2745C376.042 79.1063 373.406 76.5 370.207 76.5C367.008 76.5 364.471 79.1175 363.855 82.2571C362.719 88.0475 359.886 93.4191 355.652 97.6524C350.042 103.262 342.434 106.414 334.5 106.414C326.566 106.414 318.958 103.262 313.348 97.6524C309.114 93.419 306.281 88.0475 305.145 82.2571C304.529 79.1175 301.992 76.5 298.793 76.5Z"/>
</mask>
<path d="M298.793 76.5C295.594 76.5 292.958 79.1063 293.404 82.2745C294.65 91.1472 298.746 99.4362 305.155 105.845C312.938 113.628 323.494 118 334.5 118C345.506 118 356.062 113.628 363.845 105.845C370.254 99.4362 374.35 91.1472 375.596 82.2745C376.042 79.1063 373.406 76.5 370.207 76.5C367.008 76.5 364.471 79.1175 363.855 82.2571C362.719 88.0475 359.886 93.4191 355.652 97.6524C350.042 103.262 342.434 106.414 334.5 106.414C326.566 106.414 318.958 103.262 313.348 97.6524C309.114 93.419 306.281 88.0475 305.145 82.2571C304.529 79.1175 301.992 76.5 298.793 76.5Z" stroke="white" stroke-width="2" mask="url(#path-41-outside-41_2_813)"/>
<mask id="path-42-outside-42_2_813" maskUnits="userSpaceOnUse" x="792" y="75" width="85" height="44" fill="black">
<rect fill="white" x="792" y="75" width="85" height="44"/>
<path d="M798.793 76.5C795.594 76.5 792.958 79.1063 793.404 82.2745C794.65 91.1472 798.746 99.4362 805.155 105.845C812.938 113.628 823.494 118 834.5 118C845.506 118 856.062 113.628 863.845 105.845C870.254 99.4362 874.35 91.1472 875.596 82.2745C876.042 79.1063 873.406 76.5 870.207 76.5C867.008 76.5 864.471 79.1175 863.855 82.2571C862.719 88.0475 859.886 93.4191 855.652 97.6524C850.042 103.262 842.434 106.414 834.5 106.414C826.566 106.414 818.958 103.262 813.348 97.6524C809.114 93.419 806.281 88.0475 805.145 82.2571C804.529 79.1175 801.992 76.5 798.793 76.5Z"/>
</mask>
<path d="M798.793 76.5C795.594 76.5 792.958 79.1063 793.404 82.2745C794.65 91.1472 798.746 99.4362 805.155 105.845C812.938 113.628 823.494 118 834.5 118C845.506 118 856.062 113.628 863.845 105.845C870.254 99.4362 874.35 91.1472 875.596 82.2745C876.042 79.1063 873.406 76.5 870.207 76.5C867.008 76.5 864.471 79.1175 863.855 82.2571C862.719 88.0475 859.886 93.4191 855.652 97.6524C850.042 103.262 842.434 106.414 834.5 106.414C826.566 106.414 818.958 103.262 813.348 97.6524C809.114 93.419 806.281 88.0475 805.145 82.2571C804.529 79.1175 801.992 76.5 798.793 76.5Z" stroke="white" stroke-width="2" mask="url(#path-42-outside-42_2_813)"/>
<mask id="path-43-outside-43_2_813" maskUnits="userSpaceOnUse" x="292" y="357" width="85" height="44" fill="black">
<rect fill="white" x="292" y="357" width="85" height="44"/>
<path d="M298.793 358.5C295.594 358.5 292.958 361.106 293.404 364.275C294.65 373.147 298.746 381.436 305.155 387.845C312.938 395.628 323.494 400 334.5 400C345.506 400 356.062 395.628 363.845 387.845C370.254 381.436 374.35 373.147 375.596 364.275C376.042 361.106 373.406 358.5 370.207 358.5C367.008 358.5 364.471 361.118 363.855 364.257C362.719 370.048 359.886 375.419 355.652 379.652C350.042 385.262 342.434 388.414 334.5 388.414C326.566 388.414 318.958 385.262 313.348 379.652C309.114 375.419 306.281 370.048 305.145 364.257C304.529 361.118 301.992 358.5 298.793 358.5Z"/>
</mask>
<path d="M298.793 358.5C295.594 358.5 292.958 361.106 293.404 364.275C294.65 373.147 298.746 381.436 305.155 387.845C312.938 395.628 323.494 400 334.5 400C345.506 400 356.062 395.628 363.845 387.845C370.254 381.436 374.35 373.147 375.596 364.275C376.042 361.106 373.406 358.5 370.207 358.5C367.008 358.5 364.471 361.118 363.855 364.257C362.719 370.048 359.886 375.419 355.652 379.652C350.042 385.262 342.434 388.414 334.5 388.414C326.566 388.414 318.958 385.262 313.348 379.652C309.114 375.419 306.281 370.048 305.145 364.257C304.529 361.118 301.992 358.5 298.793 358.5Z" stroke="white" stroke-width="2" mask="url(#path-43-outside-43_2_813)"/>
<mask id="path-44-outside-44_2_813" maskUnits="userSpaceOnUse" x="792" y="357" width="85" height="44" fill="black">
<rect fill="white" x="792" y="357" width="85" height="44"/>
<path d="M798.793 358.5C795.594 358.5 792.958 361.106 793.404 364.275C794.65 373.147 798.746 381.436 805.155 387.845C812.938 395.628 823.494 400 834.5 400C845.506 400 856.062 395.628 863.845 387.845C870.254 381.436 874.35 373.147 875.596 364.275C876.042 361.106 873.406 358.5 870.207 358.5C867.008 358.5 864.471 361.118 863.855 364.257C862.719 370.048 859.886 375.419 855.652 379.652C850.042 385.262 842.434 388.414 834.5 388.414C826.566 388.414 818.958 385.262 813.348 379.652C809.114 375.419 806.281 370.048 805.145 364.257C804.529 361.118 801.992 358.5 798.793 358.5Z"/>
</mask>
<path d="M798.793 358.5C795.594 358.5 792.958 361.106 793.404 364.275C794.65 373.147 798.746 381.436 805.155 387.845C812.938 395.628 823.494 400 834.5 400C845.506 400 856.062 395.628 863.845 387.845C870.254 381.436 874.35 373.147 875.596 364.275C876.042 361.106 873.406 358.5 870.207 358.5C867.008 358.5 864.471 361.118 863.855 364.257C862.719 370.048 859.886 375.419 855.652 379.652C850.042 385.262 842.434 388.414 834.5 388.414C826.566 388.414 818.958 385.262 813.348 379.652C809.114 375.419 806.281 370.048 805.145 364.257C804.529 361.118 801.992 358.5 798.793 358.5Z" stroke="white" stroke-width="2" mask="url(#path-44-outside-44_2_813)"/>
<mask id="path-45-outside-45_2_813" maskUnits="userSpaceOnUse" x="292" y="216" width="85" height="44" fill="black">
<rect fill="white" x="292" y="216" width="85" height="44"/>
<path d="M298.793 217.5C295.594 217.5 292.958 220.106 293.404 223.275C294.65 232.147 298.746 240.436 305.155 246.845C312.938 254.628 323.494 259 334.5 259C345.506 259 356.062 254.628 363.845 246.845C370.254 240.436 374.35 232.147 375.596 223.275C376.042 220.106 373.406 217.5 370.207 217.5C367.008 217.5 364.471 220.118 363.855 223.257C362.719 229.048 359.886 234.419 355.652 238.652C350.042 244.262 342.434 247.414 334.5 247.414C326.566 247.414 318.958 244.262 313.348 238.652C309.114 234.419 306.281 229.048 305.145 223.257C304.529 220.118 301.992 217.5 298.793 217.5Z"/>
</mask>
<path d="M298.793 217.5C295.594 217.5 292.958 220.106 293.404 223.275C294.65 232.147 298.746 240.436 305.155 246.845C312.938 254.628 323.494 259 334.5 259C345.506 259 356.062 254.628 363.845 246.845C370.254 240.436 374.35 232.147 375.596 223.275C376.042 220.106 373.406 217.5 370.207 217.5C367.008 217.5 364.471 220.118 363.855 223.257C362.719 229.048 359.886 234.419 355.652 238.652C350.042 244.262 342.434 247.414 334.5 247.414C326.566 247.414 318.958 244.262 313.348 238.652C309.114 234.419 306.281 229.048 305.145 223.257C304.529 220.118 301.992 217.5 298.793 217.5Z" stroke="white" stroke-width="2" mask="url(#path-45-outside-45_2_813)"/>
<mask id="path-46-outside-46_2_813" maskUnits="userSpaceOnUse" x="792" y="216" width="85" height="44" fill="black">
<rect fill="white" x="792" y="216" width="85" height="44"/>
<path d="M798.793 217.5C795.594 217.5 792.958 220.106 793.404 223.275C794.65 232.147 798.746 240.436 805.155 246.845C812.938 254.628 823.494 259 834.5 259C845.506 259 856.062 254.628 863.845 246.845C870.254 240.436 874.35 232.147 875.596 223.275C876.042 220.106 873.406 217.5 870.207 217.5C867.008 217.5 864.471 220.118 863.855 223.257C862.719 229.048 859.886 234.419 855.652 238.652C850.042 244.262 842.434 247.414 834.5 247.414C826.566 247.414 818.958 244.262 813.348 238.652C809.114 234.419 806.281 229.048 805.145 223.257C804.529 220.118 801.992 217.5 798.793 217.5Z"/>
</mask>
<path d="M798.793 217.5C795.594 217.5 792.958 220.106 793.404 223.275C794.65 232.147 798.746 240.436 805.155 246.845C812.938 254.628 823.494 259 834.5 259C845.506 259 856.062 254.628 863.845 246.845C870.254 240.436 874.35 232.147 875.596 223.275C876.042 220.106 873.406 217.5 870.207 217.5C867.008 217.5 864.471 220.118 863.855 223.257C862.719 229.048 859.886 234.419 855.652 238.652C850.042 244.262 842.434 247.414 834.5 247.414C826.566 247.414 818.958 244.262 813.348 238.652C809.114 234.419 806.281 229.048 805.145 223.257C804.529 220.118 801.992 217.5 798.793 217.5Z" stroke="white" stroke-width="2" mask="url(#path-46-outside-46_2_813)"/>
<mask id="path-47-outside-47_2_813" maskUnits="userSpaceOnUse" x="292" y="498" width="85" height="44" fill="black">
<rect fill="white" x="292" y="498" width="85" height="44"/>
<path d="M298.793 499.5C295.594 499.5 292.958 502.106 293.404 505.275C294.65 514.147 298.746 522.436 305.155 528.845C312.938 536.628 323.494 541 334.5 541C345.506 541 356.062 536.628 363.845 528.845C370.254 522.436 374.35 514.147 375.596 505.275C376.042 502.106 373.406 499.5 370.207 499.5C367.008 499.5 364.471 502.118 363.855 505.257C362.719 511.048 359.886 516.419 355.652 520.652C350.042 526.262 342.434 529.414 334.5 529.414C326.566 529.414 318.958 526.262 313.348 520.652C309.114 516.419 306.281 511.048 305.145 505.257C304.529 502.118 301.992 499.5 298.793 499.5Z"/>
</mask>
<path d="M298.793 499.5C295.594 499.5 292.958 502.106 293.404 505.275C294.65 514.147 298.746 522.436 305.155 528.845C312.938 536.628 323.494 541 334.5 541C345.506 541 356.062 536.628 363.845 528.845C370.254 522.436 374.35 514.147 375.596 505.275C376.042 502.106 373.406 499.5 370.207 499.5C367.008 499.5 364.471 502.118 363.855 505.257C362.719 511.048 359.886 516.419 355.652 520.652C350.042 526.262 342.434 529.414 334.5 529.414C326.566 529.414 318.958 526.262 313.348 520.652C309.114 516.419 306.281 511.048 305.145 505.257C304.529 502.118 301.992 499.5 298.793 499.5Z" stroke="white" stroke-width="2" mask="url(#path-47-outside-47_2_813)"/>
<mask id="path-48-outside-48_2_813" maskUnits="userSpaceOnUse" x="792" y="498" width="85" height="44" fill="black">
<rect fill="white" x="792" y="498" width="85" height="44"/>
<path d="M798.793 499.5C795.594 499.5 792.958 502.106 793.404 505.275C794.65 514.147 798.746 522.436 805.155 528.845C812.938 536.628 823.494 541 834.5 541C845.506 541 856.062 536.628 863.845 528.845C870.254 522.436 874.35 514.147 875.596 505.275C876.042 502.106 873.406 499.5 870.207 499.5C867.008 499.5 864.471 502.118 863.855 505.257C862.719 511.048 859.886 516.419 855.652 520.652C850.042 526.262 842.434 529.414 834.5 529.414C826.566 529.414 818.958 526.262 813.348 520.652C809.114 516.419 806.281 511.048 805.145 505.257C804.529 502.118 801.992 499.5 798.793 499.5Z"/>
</mask>
<path d="M798.793 499.5C795.594 499.5 792.958 502.106 793.404 505.275C794.65 514.147 798.746 522.436 805.155 528.845C812.938 536.628 823.494 541 834.5 541C845.506 541 856.062 536.628 863.845 528.845C870.254 522.436 874.35 514.147 875.596 505.275C876.042 502.106 873.406 499.5 870.207 499.5C867.008 499.5 864.471 502.118 863.855 505.257C862.719 511.048 859.886 516.419 855.652 520.652C850.042 526.262 842.434 529.414 834.5 529.414C826.566 529.414 818.958 526.262 813.348 520.652C809.114 516.419 806.281 511.048 805.145 505.257C804.529 502.118 801.992 499.5 798.793 499.5Z" stroke="white" stroke-width="2" mask="url(#path-48-outside-48_2_813)"/>
<mask id="path-49-outside-49_2_813" maskUnits="userSpaceOnUse" x="167" y="75" width="85" height="44" fill="black">
<rect fill="white" x="167" y="75" width="85" height="44"/>
<path d="M173.793 76.5C170.594 76.5 167.958 79.1063 168.404 82.2745C169.65 91.1472 173.746 99.4362 180.155 105.845C187.938 113.628 198.494 118 209.5 118C220.506 118 231.062 113.628 238.845 105.845C245.254 99.4362 249.35 91.1472 250.596 82.2745C251.042 79.1063 248.406 76.5 245.207 76.5C242.008 76.5 239.471 79.1175 238.855 82.2571C237.719 88.0475 234.886 93.4191 230.652 97.6524C225.042 103.262 217.434 106.414 209.5 106.414C201.566 106.414 193.958 103.262 188.348 97.6524C184.114 93.419 181.281 88.0475 180.145 82.2571C179.529 79.1175 176.992 76.5 173.793 76.5Z"/>
</mask>
<path d="M173.793 76.5C170.594 76.5 167.958 79.1063 168.404 82.2745C169.65 91.1472 173.746 99.4362 180.155 105.845C187.938 113.628 198.494 118 209.5 118C220.506 118 231.062 113.628 238.845 105.845C245.254 99.4362 249.35 91.1472 250.596 82.2745C251.042 79.1063 248.406 76.5 245.207 76.5C242.008 76.5 239.471 79.1175 238.855 82.2571C237.719 88.0475 234.886 93.4191 230.652 97.6524C225.042 103.262 217.434 106.414 209.5 106.414C201.566 106.414 193.958 103.262 188.348 97.6524C184.114 93.419 181.281 88.0475 180.145 82.2571C179.529 79.1175 176.992 76.5 173.793 76.5Z" stroke="white" stroke-width="2" mask="url(#path-49-outside-49_2_813)"/>
<mask id="path-50-outside-50_2_813" maskUnits="userSpaceOnUse" x="667" y="75" width="85" height="44" fill="black">
<rect fill="white" x="667" y="75" width="85" height="44"/>
<path d="M673.793 76.5C670.594 76.5 667.958 79.1063 668.404 82.2745C669.65 91.1472 673.746 99.4362 680.155 105.845C687.938 113.628 698.494 118 709.5 118C720.506 118 731.062 113.628 738.845 105.845C745.254 99.4362 749.35 91.1472 750.596 82.2745C751.042 79.1063 748.406 76.5 745.207 76.5C742.008 76.5 739.471 79.1175 738.855 82.2571C737.719 88.0475 734.886 93.4191 730.652 97.6524C725.042 103.262 717.434 106.414 709.5 106.414C701.566 106.414 693.958 103.262 688.348 97.6524C684.114 93.419 681.281 88.0475 680.145 82.2571C679.529 79.1175 676.992 76.5 673.793 76.5Z"/>
</mask>
<path d="M673.793 76.5C670.594 76.5 667.958 79.1063 668.404 82.2745C669.65 91.1472 673.746 99.4362 680.155 105.845C687.938 113.628 698.494 118 709.5 118C720.506 118 731.062 113.628 738.845 105.845C745.254 99.4362 749.35 91.1472 750.596 82.2745C751.042 79.1063 748.406 76.5 745.207 76.5C742.008 76.5 739.471 79.1175 738.855 82.2571C737.719 88.0475 734.886 93.4191 730.652 97.6524C725.042 103.262 717.434 106.414 709.5 106.414C701.566 106.414 693.958 103.262 688.348 97.6524C684.114 93.419 681.281 88.0475 680.145 82.2571C679.529 79.1175 676.992 76.5 673.793 76.5Z" stroke="white" stroke-width="2" mask="url(#path-50-outside-50_2_813)"/>
<mask id="path-51-outside-51_2_813" maskUnits="userSpaceOnUse" x="167" y="357" width="85" height="44" fill="black">
<rect fill="white" x="167" y="357" width="85" height="44"/>
<path d="M173.793 358.5C170.594 358.5 167.958 361.106 168.404 364.275C169.65 373.147 173.746 381.436 180.155 387.845C187.938 395.628 198.494 400 209.5 400C220.506 400 231.062 395.628 238.845 387.845C245.254 381.436 249.35 373.147 250.596 364.275C251.042 361.106 248.406 358.5 245.207 358.5C242.008 358.5 239.471 361.118 238.855 364.257C237.719 370.048 234.886 375.419 230.652 379.652C225.042 385.262 217.434 388.414 209.5 388.414C201.566 388.414 193.958 385.262 188.348 379.652C184.114 375.419 181.281 370.048 180.145 364.257C179.529 361.118 176.992 358.5 173.793 358.5Z"/>
</mask>
<path d="M173.793 358.5C170.594 358.5 167.958 361.106 168.404 364.275C169.65 373.147 173.746 381.436 180.155 387.845C187.938 395.628 198.494 400 209.5 400C220.506 400 231.062 395.628 238.845 387.845C245.254 381.436 249.35 373.147 250.596 364.275C251.042 361.106 248.406 358.5 245.207 358.5C242.008 358.5 239.471 361.118 238.855 364.257C237.719 370.048 234.886 375.419 230.652 379.652C225.042 385.262 217.434 388.414 209.5 388.414C201.566 388.414 193.958 385.262 188.348 379.652C184.114 375.419 181.281 370.048 180.145 364.257C179.529 361.118 176.992 358.5 173.793 358.5Z" stroke="white" stroke-width="2" mask="url(#path-51-outside-51_2_813)"/>
<mask id="path-52-outside-52_2_813" maskUnits="userSpaceOnUse" x="667" y="357" width="85" height="44" fill="black">
<rect fill="white" x="667" y="357" width="85" height="44"/>
<path d="M673.793 358.5C670.594 358.5 667.958 361.106 668.404 364.275C669.65 373.147 673.746 381.436 680.155 387.845C687.938 395.628 698.494 400 709.5 400C720.506 400 731.062 395.628 738.845 387.845C745.254 381.436 749.35 373.147 750.596 364.275C751.042 361.106 748.406 358.5 745.207 358.5C742.008 358.5 739.471 361.118 738.855 364.257C737.719 370.048 734.886 375.419 730.652 379.652C725.042 385.262 717.434 388.414 709.5 388.414C701.566 388.414 693.958 385.262 688.348 379.652C684.114 375.419 681.281 370.048 680.145 364.257C679.529 361.118 676.992 358.5 673.793 358.5Z"/>
</mask>
<path d="M673.793 358.5C670.594 358.5 667.958 361.106 668.404 364.275C669.65 373.147 673.746 381.436 680.155 387.845C687.938 395.628 698.494 400 709.5 400C720.506 400 731.062 395.628 738.845 387.845C745.254 381.436 749.35 373.147 750.596 364.275C751.042 361.106 748.406 358.5 745.207 358.5C742.008 358.5 739.471 361.118 738.855 364.257C737.719 370.048 734.886 375.419 730.652 379.652C725.042 385.262 717.434 388.414 709.5 388.414C701.566 388.414 693.958 385.262 688.348 379.652C684.114 375.419 681.281 370.048 680.145 364.257C679.529 361.118 676.992 358.5 673.793 358.5Z" stroke="white" stroke-width="2" mask="url(#path-52-outside-52_2_813)"/>
<mask id="path-53-outside-53_2_813" maskUnits="userSpaceOnUse" x="167" y="216" width="85" height="44" fill="black">
<rect fill="white" x="167" y="216" width="85" height="44"/>
<path d="M173.793 217.5C170.594 217.5 167.958 220.106 168.404 223.275C169.65 232.147 173.746 240.436 180.155 246.845C187.938 254.628 198.494 259 209.5 259C220.506 259 231.062 254.628 238.845 246.845C245.254 240.436 249.35 232.147 250.596 223.275C251.042 220.106 248.406 217.5 245.207 217.5C242.008 217.5 239.471 220.118 238.855 223.257C237.719 229.048 234.886 234.419 230.652 238.652C225.042 244.262 217.434 247.414 209.5 247.414C201.566 247.414 193.958 244.262 188.348 238.652C184.114 234.419 181.281 229.048 180.145 223.257C179.529 220.118 176.992 217.5 173.793 217.5Z"/>
</mask>
<path d="M173.793 217.5C170.594 217.5 167.958 220.106 168.404 223.275C169.65 232.147 173.746 240.436 180.155 246.845C187.938 254.628 198.494 259 209.5 259C220.506 259 231.062 254.628 238.845 246.845C245.254 240.436 249.35 232.147 250.596 223.275C251.042 220.106 248.406 217.5 245.207 217.5C242.008 217.5 239.471 220.118 238.855 223.257C237.719 229.048 234.886 234.419 230.652 238.652C225.042 244.262 217.434 247.414 209.5 247.414C201.566 247.414 193.958 244.262 188.348 238.652C184.114 234.419 181.281 229.048 180.145 223.257C179.529 220.118 176.992 217.5 173.793 217.5Z" stroke="white" stroke-width="2" mask="url(#path-53-outside-53_2_813)"/>
<mask id="path-54-outside-54_2_813" maskUnits="userSpaceOnUse" x="667" y="216" width="85" height="44" fill="black">
<rect fill="white" x="667" y="216" width="85" height="44"/>
<path d="M673.793 217.5C670.594 217.5 667.958 220.106 668.404 223.275C669.65 232.147 673.746 240.436 680.155 246.845C687.938 254.628 698.494 259 709.5 259C720.506 259 731.062 254.628 738.845 246.845C745.254 240.436 749.35 232.147 750.596 223.275C751.042 220.106 748.406 217.5 745.207 217.5C742.008 217.5 739.471 220.118 738.855 223.257C737.719 229.048 734.886 234.419 730.652 238.652C725.042 244.262 717.434 247.414 709.5 247.414C701.566 247.414 693.958 244.262 688.348 238.652C684.114 234.419 681.281 229.048 680.145 223.257C679.529 220.118 676.992 217.5 673.793 217.5Z"/>
</mask>
<path d="M673.793 217.5C670.594 217.5 667.958 220.106 668.404 223.275C669.65 232.147 673.746 240.436 680.155 246.845C687.938 254.628 698.494 259 709.5 259C720.506 259 731.062 254.628 738.845 246.845C745.254 240.436 749.35 232.147 750.596 223.275C751.042 220.106 748.406 217.5 745.207 217.5C742.008 217.5 739.471 220.118 738.855 223.257C737.719 229.048 734.886 234.419 730.652 238.652C725.042 244.262 717.434 247.414 709.5 247.414C701.566 247.414 693.958 244.262 688.348 238.652C684.114 234.419 681.281 229.048 680.145 223.257C679.529 220.118 676.992 217.5 673.793 217.5Z" stroke="white" stroke-width="2" mask="url(#path-54-outside-54_2_813)"/>
<mask id="path-55-outside-55_2_813" maskUnits="userSpaceOnUse" x="167" y="498" width="85" height="44" fill="black">
<rect fill="white" x="167" y="498" width="85" height="44"/>
<path d="M173.793 499.5C170.594 499.5 167.958 502.106 168.404 505.275C169.65 514.147 173.746 522.436 180.155 528.845C187.938 536.628 198.494 541 209.5 541C220.506 541 231.062 536.628 238.845 528.845C245.254 522.436 249.35 514.147 250.596 505.275C251.042 502.106 248.406 499.5 245.207 499.5C242.008 499.5 239.471 502.118 238.855 505.257C237.719 511.048 234.886 516.419 230.652 520.652C225.042 526.262 217.434 529.414 209.5 529.414C201.566 529.414 193.958 526.262 188.348 520.652C184.114 516.419 181.281 511.048 180.145 505.257C179.529 502.118 176.992 499.5 173.793 499.5Z"/>
</mask>
<path d="M173.793 499.5C170.594 499.5 167.958 502.106 168.404 505.275C169.65 514.147 173.746 522.436 180.155 528.845C187.938 536.628 198.494 541 209.5 541C220.506 541 231.062 536.628 238.845 528.845C245.254 522.436 249.35 514.147 250.596 505.275C251.042 502.106 248.406 499.5 245.207 499.5C242.008 499.5 239.471 502.118 238.855 505.257C237.719 511.048 234.886 516.419 230.652 520.652C225.042 526.262 217.434 529.414 209.5 529.414C201.566 529.414 193.958 526.262 188.348 520.652C184.114 516.419 181.281 511.048 180.145 505.257C179.529 502.118 176.992 499.5 173.793 499.5Z" stroke="white" stroke-width="2" mask="url(#path-55-outside-55_2_813)"/>
<mask id="path-56-outside-56_2_813" maskUnits="userSpaceOnUse" x="667" y="498" width="85" height="44" fill="black">
<rect fill="white" x="667" y="498" width="85" height="44"/>
<path d="M673.793 499.5C670.594 499.5 667.958 502.106 668.404 505.275C669.65 514.147 673.746 522.436 680.155 528.845C687.938 536.628 698.494 541 709.5 541C720.506 541 731.062 536.628 738.845 528.845C745.254 522.436 749.35 514.147 750.596 505.275C751.042 502.106 748.406 499.5 745.207 499.5C742.008 499.5 739.471 502.118 738.855 505.257C737.719 511.048 734.886 516.419 730.652 520.652C725.042 526.262 717.434 529.414 709.5 529.414C701.566 529.414 693.958 526.262 688.348 520.652C684.114 516.419 681.281 511.048 680.145 505.257C679.529 502.118 676.992 499.5 673.793 499.5Z"/>
</mask>
<path d="M673.793 499.5C670.594 499.5 667.958 502.106 668.404 505.275C669.65 514.147 673.746 522.436 680.155 528.845C687.938 536.628 698.494 541 709.5 541C720.506 541 731.062 536.628 738.845 528.845C745.254 522.436 749.35 514.147 750.596 505.275C751.042 502.106 748.406 499.5 745.207 499.5C742.008 499.5 739.471 502.118 738.855 505.257C737.719 511.048 734.886 516.419 730.652 520.652C725.042 526.262 717.434 529.414 709.5 529.414C701.566 529.414 693.958 526.262 688.348 520.652C684.114 516.419 681.281 511.048 680.145 505.257C679.529 502.118 676.992 499.5 673.793 499.5Z" stroke="white" stroke-width="2" mask="url(#path-56-outside-56_2_813)"/>
<mask id="path-57-outside-57_2_813" maskUnits="userSpaceOnUse" x="417" y="75" width="85" height="44" fill="black">
<rect fill="white" x="417" y="75" width="85" height="44"/>
<path d="M423.793 76.5C420.594 76.5 417.958 79.1063 418.404 82.2745C419.65 91.1472 423.746 99.4362 430.155 105.845C437.938 113.628 448.494 118 459.5 118C470.506 118 481.062 113.628 488.845 105.845C495.254 99.4362 499.35 91.1472 500.596 82.2745C501.042 79.1063 498.406 76.5 495.207 76.5C492.008 76.5 489.471 79.1175 488.855 82.2571C487.719 88.0475 484.886 93.4191 480.652 97.6524C475.042 103.262 467.434 106.414 459.5 106.414C451.566 106.414 443.958 103.262 438.348 97.6524C434.114 93.419 431.281 88.0475 430.145 82.2571C429.529 79.1175 426.992 76.5 423.793 76.5Z"/>
</mask>
<path d="M423.793 76.5C420.594 76.5 417.958 79.1063 418.404 82.2745C419.65 91.1472 423.746 99.4362 430.155 105.845C437.938 113.628 448.494 118 459.5 118C470.506 118 481.062 113.628 488.845 105.845C495.254 99.4362 499.35 91.1472 500.596 82.2745C501.042 79.1063 498.406 76.5 495.207 76.5C492.008 76.5 489.471 79.1175 488.855 82.2571C487.719 88.0475 484.886 93.4191 480.652 97.6524C475.042 103.262 467.434 106.414 459.5 106.414C451.566 106.414 443.958 103.262 438.348 97.6524C434.114 93.419 431.281 88.0475 430.145 82.2571C429.529 79.1175 426.992 76.5 423.793 76.5Z" stroke="white" stroke-width="2" mask="url(#path-57-outside-57_2_813)"/>
<mask id="path-58-outside-58_2_813" maskUnits="userSpaceOnUse" x="917" y="75" width="85" height="44" fill="black">
<rect fill="white" x="917" y="75" width="85" height="44"/>
<path d="M923.793 76.5C920.594 76.5 917.958 79.1063 918.404 82.2745C919.65 91.1472 923.746 99.4362 930.155 105.845C937.938 113.628 948.494 118 959.5 118C970.506 118 981.062 113.628 988.845 105.845C995.254 99.4362 999.35 91.1472 1000.6 82.2745C1001.04 79.1063 998.406 76.5 995.207 76.5C992.008 76.5 989.471 79.1175 988.855 82.2571C987.719 88.0475 984.886 93.4191 980.652 97.6524C975.042 103.262 967.434 106.414 959.5 106.414C951.566 106.414 943.958 103.262 938.348 97.6524C934.114 93.419 931.281 88.0475 930.145 82.2571C929.529 79.1175 926.992 76.5 923.793 76.5Z"/>
</mask>
<path d="M923.793 76.5C920.594 76.5 917.958 79.1063 918.404 82.2745C919.65 91.1472 923.746 99.4362 930.155 105.845C937.938 113.628 948.494 118 959.5 118C970.506 118 981.062 113.628 988.845 105.845C995.254 99.4362 999.35 91.1472 1000.6 82.2745C1001.04 79.1063 998.406 76.5 995.207 76.5C992.008 76.5 989.471 79.1175 988.855 82.2571C987.719 88.0475 984.886 93.4191 980.652 97.6524C975.042 103.262 967.434 106.414 959.5 106.414C951.566 106.414 943.958 103.262 938.348 97.6524C934.114 93.419 931.281 88.0475 930.145 82.2571C929.529 79.1175 926.992 76.5 923.793 76.5Z" stroke="white" stroke-width="2" mask="url(#path-58-outside-58_2_813)"/>
<mask id="path-59-outside-59_2_813" maskUnits="userSpaceOnUse" x="417" y="357" width="85" height="44" fill="black">
<rect fill="white" x="417" y="357" width="85" height="44"/>
<path d="M423.793 358.5C420.594 358.5 417.958 361.106 418.404 364.275C419.65 373.147 423.746 381.436 430.155 387.845C437.938 395.628 448.494 400 459.5 400C470.506 400 481.062 395.628 488.845 387.845C495.254 381.436 499.35 373.147 500.596 364.275C501.042 361.106 498.406 358.5 495.207 358.5C492.008 358.5 489.471 361.118 488.855 364.257C487.719 370.048 484.886 375.419 480.652 379.652C475.042 385.262 467.434 388.414 459.5 388.414C451.566 388.414 443.958 385.262 438.348 379.652C434.114 375.419 431.281 370.048 430.145 364.257C429.529 361.118 426.992 358.5 423.793 358.5Z"/>
</mask>
<path d="M423.793 358.5C420.594 358.5 417.958 361.106 418.404 364.275C419.65 373.147 423.746 381.436 430.155 387.845C437.938 395.628 448.494 400 459.5 400C470.506 400 481.062 395.628 488.845 387.845C495.254 381.436 499.35 373.147 500.596 364.275C501.042 361.106 498.406 358.5 495.207 358.5C492.008 358.5 489.471 361.118 488.855 364.257C487.719 370.048 484.886 375.419 480.652 379.652C475.042 385.262 467.434 388.414 459.5 388.414C451.566 388.414 443.958 385.262 438.348 379.652C434.114 375.419 431.281 370.048 430.145 364.257C429.529 361.118 426.992 358.5 423.793 358.5Z" stroke="white" stroke-width="2" mask="url(#path-59-outside-59_2_813)"/>
<mask id="path-60-outside-60_2_813" maskUnits="userSpaceOnUse" x="917" y="357" width="85" height="44" fill="black">
<rect fill="white" x="917" y="357" width="85" height="44"/>
<path d="M923.793 358.5C920.594 358.5 917.958 361.106 918.404 364.275C919.65 373.147 923.746 381.436 930.155 387.845C937.938 395.628 948.494 400 959.5 400C970.506 400 981.062 395.628 988.845 387.845C995.254 381.436 999.35 373.147 1000.6 364.275C1001.04 361.106 998.406 358.5 995.207 358.5C992.008 358.5 989.471 361.118 988.855 364.257C987.719 370.048 984.886 375.419 980.652 379.652C975.042 385.262 967.434 388.414 959.5 388.414C951.566 388.414 943.958 385.262 938.348 379.652C934.114 375.419 931.281 370.048 930.145 364.257C929.529 361.118 926.992 358.5 923.793 358.5Z"/>
</mask>
<path d="M923.793 358.5C920.594 358.5 917.958 361.106 918.404 364.275C919.65 373.147 923.746 381.436 930.155 387.845C937.938 395.628 948.494 400 959.5 400C970.506 400 981.062 395.628 988.845 387.845C995.254 381.436 999.35 373.147 1000.6 364.275C1001.04 361.106 998.406 358.5 995.207 358.5C992.008 358.5 989.471 361.118 988.855 364.257C987.719 370.048 984.886 375.419 980.652 379.652C975.042 385.262 967.434 388.414 959.5 388.414C951.566 388.414 943.958 385.262 938.348 379.652C934.114 375.419 931.281 370.048 930.145 364.257C929.529 361.118 926.992 358.5 923.793 358.5Z" stroke="white" stroke-width="2" mask="url(#path-60-outside-60_2_813)"/>
<mask id="path-61-outside-61_2_813" maskUnits="userSpaceOnUse" x="417" y="216" width="85" height="44" fill="black">
<rect fill="white" x="417" y="216" width="85" height="44"/>
<path d="M423.793 217.5C420.594 217.5 417.958 220.106 418.404 223.275C419.65 232.147 423.746 240.436 430.155 246.845C437.938 254.628 448.494 259 459.5 259C470.506 259 481.062 254.628 488.845 246.845C495.254 240.436 499.35 232.147 500.596 223.275C501.042 220.106 498.406 217.5 495.207 217.5C492.008 217.5 489.471 220.118 488.855 223.257C487.719 229.048 484.886 234.419 480.652 238.652C475.042 244.262 467.434 247.414 459.5 247.414C451.566 247.414 443.958 244.262 438.348 238.652C434.114 234.419 431.281 229.048 430.145 223.257C429.529 220.118 426.992 217.5 423.793 217.5Z"/>
</mask>
<path d="M423.793 217.5C420.594 217.5 417.958 220.106 418.404 223.275C419.65 232.147 423.746 240.436 430.155 246.845C437.938 254.628 448.494 259 459.5 259C470.506 259 481.062 254.628 488.845 246.845C495.254 240.436 499.35 232.147 500.596 223.275C501.042 220.106 498.406 217.5 495.207 217.5C492.008 217.5 489.471 220.118 488.855 223.257C487.719 229.048 484.886 234.419 480.652 238.652C475.042 244.262 467.434 247.414 459.5 247.414C451.566 247.414 443.958 244.262 438.348 238.652C434.114 234.419 431.281 229.048 430.145 223.257C429.529 220.118 426.992 217.5 423.793 217.5Z" stroke="white" stroke-width="2" mask="url(#path-61-outside-61_2_813)"/>
<mask id="path-62-outside-62_2_813" maskUnits="userSpaceOnUse" x="917" y="216" width="85" height="44" fill="black">
<rect fill="white" x="917" y="216" width="85" height="44"/>
<path d="M923.793 217.5C920.594 217.5 917.958 220.106 918.404 223.275C919.65 232.147 923.746 240.436 930.155 246.845C937.938 254.628 948.494 259 959.5 259C970.506 259 981.062 254.628 988.845 246.845C995.254 240.436 999.35 232.147 1000.6 223.275C1001.04 220.106 998.406 217.5 995.207 217.5C992.008 217.5 989.471 220.118 988.855 223.257C987.719 229.048 984.886 234.419 980.652 238.652C975.042 244.262 967.434 247.414 959.5 247.414C951.566 247.414 943.958 244.262 938.348 238.652C934.114 234.419 931.281 229.048 930.145 223.257C929.529 220.118 926.992 217.5 923.793 217.5Z"/>
</mask>
<path d="M923.793 217.5C920.594 217.5 917.958 220.106 918.404 223.275C919.65 232.147 923.746 240.436 930.155 246.845C937.938 254.628 948.494 259 959.5 259C970.506 259 981.062 254.628 988.845 246.845C995.254 240.436 999.35 232.147 1000.6 223.275C1001.04 220.106 998.406 217.5 995.207 217.5C992.008 217.5 989.471 220.118 988.855 223.257C987.719 229.048 984.886 234.419 980.652 238.652C975.042 244.262 967.434 247.414 959.5 247.414C951.566 247.414 943.958 244.262 938.348 238.652C934.114 234.419 931.281 229.048 930.145 223.257C929.529 220.118 926.992 217.5 923.793 217.5Z" stroke="white" stroke-width="2" mask="url(#path-62-outside-62_2_813)"/>
<mask id="path-63-outside-63_2_813" maskUnits="userSpaceOnUse" x="417" y="498" width="85" height="44" fill="black">
<rect fill="white" x="417" y="498" width="85" height="44"/>
<path d="M423.793 499.5C420.594 499.5 417.958 502.106 418.404 505.275C419.65 514.147 423.746 522.436 430.155 528.845C437.938 536.628 448.494 541 459.5 541C470.506 541 481.062 536.628 488.845 528.845C495.254 522.436 499.35 514.147 500.596 505.275C501.042 502.106 498.406 499.5 495.207 499.5C492.008 499.5 489.471 502.118 488.855 505.257C487.719 511.048 484.886 516.419 480.652 520.652C475.042 526.262 467.434 529.414 459.5 529.414C451.566 529.414 443.958 526.262 438.348 520.652C434.114 516.419 431.281 511.048 430.145 505.257C429.529 502.118 426.992 499.5 423.793 499.5Z"/>
</mask>
<path d="M423.793 499.5C420.594 499.5 417.958 502.106 418.404 505.275C419.65 514.147 423.746 522.436 430.155 528.845C437.938 536.628 448.494 541 459.5 541C470.506 541 481.062 536.628 488.845 528.845C495.254 522.436 499.35 514.147 500.596 505.275C501.042 502.106 498.406 499.5 495.207 499.5C492.008 499.5 489.471 502.118 488.855 505.257C487.719 511.048 484.886 516.419 480.652 520.652C475.042 526.262 467.434 529.414 459.5 529.414C451.566 529.414 443.958 526.262 438.348 520.652C434.114 516.419 431.281 511.048 430.145 505.257C429.529 502.118 426.992 499.5 423.793 499.5Z" stroke="white" stroke-width="2" mask="url(#path-63-outside-63_2_813)"/>
<mask id="path-64-outside-64_2_813" maskUnits="userSpaceOnUse" x="917" y="498" width="85" height="44" fill="black">
<rect fill="white" x="917" y="498" width="85" height="44"/>
<path d="M923.793 499.5C920.594 499.5 917.958 502.106 918.404 505.275C919.65 514.147 923.746 522.436 930.155 528.845C937.938 536.628 948.494 541 959.5 541C970.506 541 981.062 536.628 988.845 528.845C995.254 522.436 999.35 514.147 1000.6 505.275C1001.04 502.106 998.406 499.5 995.207 499.5C992.008 499.5 989.471 502.118 988.855 505.257C987.719 511.048 984.886 516.419 980.652 520.652C975.042 526.262 967.434 529.414 959.5 529.414C951.566 529.414 943.958 526.262 938.348 520.652C934.114 516.419 931.281 511.048 930.145 505.257C929.529 502.118 926.992 499.5 923.793 499.5Z"/>
</mask>
<path d="M923.793 499.5C920.594 499.5 917.958 502.106 918.404 505.275C919.65 514.147 923.746 522.436 930.155 528.845C937.938 536.628 948.494 541 959.5 541C970.506 541 981.062 536.628 988.845 528.845C995.254 522.436 999.35 514.147 1000.6 505.275C1001.04 502.106 998.406 499.5 995.207 499.5C992.008 499.5 989.471 502.118 988.855 505.257C987.719 511.048 984.886 516.419 980.652 520.652C975.042 526.262 967.434 529.414 959.5 529.414C951.566 529.414 943.958 526.262 938.348 520.652C934.114 516.419 931.281 511.048 930.145 505.257C929.529 502.118 926.992 499.5 923.793 499.5Z" stroke="white" stroke-width="2" mask="url(#path-64-outside-64_2_813)"/>
</svg>
